<mxfile modified="2023-03-28T14:20:04.826Z" host="app.diagrams.net" agent="Mozilla/5.0 (Windows NT 10.0; Win64; x64) AppleWebKit/537.36 (KHTML, like Gecko) Chrome/111.0.0.0 Safari/537.36 Edg/111.0.1661.54" etag="FF_D46_UK_qD9kaGkTt6" version="21.1.1" type="github">
  <diagram id="WI9T0HZ2pTsCkuznbFz-" name="Page-1">
    <mxGraphModel dx="2897" dy="1124" grid="1" gridSize="10" guides="1" tooltips="1" connect="1" arrows="1" fold="1" page="1" pageScale="1" pageWidth="1169" pageHeight="827" math="0" shadow="0">
      <root>
        <mxCell id="0" />
        <mxCell id="1" parent="0" />
        <mxCell id="RLjyjs_sm2IHfBNOWAbh-27" value="&lt;font style=&quot;font-size: 12px;&quot;&gt;Ingest&lt;/font&gt;" style="edgeStyle=elbowEdgeStyle;rounded=0;orthogonalLoop=1;jettySize=auto;html=1;elbow=vertical;spacing=7;fontSize=19;labelBackgroundColor=none;fontColor=default;" parent="1" edge="1">
          <mxGeometry x="0.0769" y="10" relative="1" as="geometry">
            <mxPoint x="160" y="250" as="sourcePoint" />
            <mxPoint x="410" y="240" as="targetPoint" />
            <Array as="points">
              <mxPoint x="430" y="240" />
              <mxPoint x="350" y="240" />
              <mxPoint x="120" y="250" />
            </Array>
            <mxPoint as="offset" />
          </mxGeometry>
        </mxCell>
        <mxCell id="L6lzIBZe05wMHwi8EpyU-21" value="&lt;font style=&quot;font-size: 10px;&quot;&gt;Process&lt;/font&gt;" style="edgeStyle=orthogonalEdgeStyle;rounded=0;orthogonalLoop=1;jettySize=auto;html=1;fontSize=15;entryX=0;entryY=0;entryDx=0;entryDy=0;labelBackgroundColor=none;fontColor=default;" edge="1" parent="1" target="L6lzIBZe05wMHwi8EpyU-19">
          <mxGeometry x="0.2192" y="-11" relative="1" as="geometry">
            <mxPoint x="393" y="320" as="sourcePoint" />
            <mxPoint x="600" y="233" as="targetPoint" />
            <mxPoint as="offset" />
          </mxGeometry>
        </mxCell>
        <mxCell id="RLjyjs_sm2IHfBNOWAbh-16" value="Azure Stream Analytics" style="aspect=fixed;html=1;perimeter=none;align=center;shadow=0;dashed=0;image;fontSize=12;image=img/lib/mscae/Stream_Analytics.svg;labelBackgroundColor=none;" parent="1" vertex="1">
          <mxGeometry x="360.0000000000001" y="242.59" width="65" height="51" as="geometry" />
        </mxCell>
        <mxCell id="L6lzIBZe05wMHwi8EpyU-67" value="" style="edgeStyle=elbowEdgeStyle;rounded=0;orthogonalLoop=1;jettySize=auto;html=1;labelBackgroundColor=none;fontColor=default;" edge="1" parent="1" source="L6lzIBZe05wMHwi8EpyU-5">
          <mxGeometry relative="1" as="geometry">
            <mxPoint x="600" y="400" as="targetPoint" />
            <Array as="points">
              <mxPoint x="560" y="440" />
            </Array>
          </mxGeometry>
        </mxCell>
        <mxCell id="L6lzIBZe05wMHwi8EpyU-68" style="edgeStyle=elbowEdgeStyle;rounded=0;orthogonalLoop=1;jettySize=auto;html=1;labelBackgroundColor=none;fontColor=default;" edge="1" parent="1">
          <mxGeometry relative="1" as="geometry">
            <mxPoint x="380" y="480" as="targetPoint" />
            <mxPoint x="480" y="506" as="sourcePoint" />
            <Array as="points">
              <mxPoint x="380" y="506" />
            </Array>
          </mxGeometry>
        </mxCell>
        <mxCell id="L6lzIBZe05wMHwi8EpyU-5" value="Data Lake Gen2" style="shape=image;verticalLabelPosition=bottom;labelBackgroundColor=none;verticalAlign=top;aspect=fixed;imageAspect=0;image=data:image/svg+xml,PHN2ZyB4bWxuczpkYz0iaHR0cDovL3B1cmwub3JnL2RjL2VsZW1lbnRzLzEuMS8iIHhtbG5zOmNjPSJodHRwOi8vY3JlYXRpdmVjb21tb25zLm9yZy9ucyMiIHhtbG5zOnJkZj0iaHR0cDovL3d3dy53My5vcmcvMTk5OS8wMi8yMi1yZGYtc3ludGF4LW5zIyIgeG1sbnM6c3ZnPSJodHRwOi8vd3d3LnczLm9yZy8yMDAwL3N2ZyIgeG1sbnM9Imh0dHA6Ly93d3cudzMub3JnLzIwMDAvc3ZnIiB4bWxuczpzb2RpcG9kaT0iaHR0cDovL3NvZGlwb2RpLnNvdXJjZWZvcmdlLm5ldC9EVEQvc29kaXBvZGktMC5kdGQiIHhtbG5zOmlua3NjYXBlPSJodHRwOi8vd3d3Lmlua3NjYXBlLm9yZy9uYW1lc3BhY2VzL2lua3NjYXBlIiB2ZXJzaW9uPSIxLjEiIGlkPSJzdmc3NzczOCIgaW5rc2NhcGU6dmVyc2lvbj0iMC45Mi4zICgyNDA1NTQ2LCAyMDE4LTAzLTExKSIgc29kaXBvZGk6ZG9jbmFtZT0iZGF0YV9sYWtlX3N0b3JlLnN2ZyIgeD0iMHB4IiB5PSIwcHgiIHZpZXdCb3g9IjAgMCA4MS45NyA2NC4zNCIgeG1sOnNwYWNlPSJwcmVzZXJ2ZSIgd2lkdGg9IjgxLjk3MDAwMSIgaGVpZ2h0PSI2NC4zMzk5OTYiPjxtZXRhZGF0YSBpZD0ibWV0YWRhdGEyMzEwNCI+PHJkZjpSREY+PGNjOldvcmsgcmRmOmFib3V0PSIiPjxkYzpmb3JtYXQ+aW1hZ2Uvc3ZnK3htbDwvZGM6Zm9ybWF0PjxkYzp0eXBlIHJkZjpyZXNvdXJjZT0iaHR0cDovL3B1cmwub3JnL2RjL2RjbWl0eXBlL1N0aWxsSW1hZ2UiLz48ZGM6dGl0bGUvPjwvY2M6V29yaz48L3JkZjpSREY+PC9tZXRhZGF0YT48ZGVmcyBpZD0iZGVmczIzMTAyIi8+JiN4YTs8ZmlsdGVyIGlkPSJmaWx0ZXJfMiI+JiN4YTsJPGZlR2F1c3NpYW5CbHVyIGlkPSJmZUdhdXNzaWFuQmx1cjc3NzA4IiBzdGREZXZpYXRpb249IjIiLz4mI3hhOzwvZmlsdGVyPiYjeGE7PHNvZGlwb2RpOm5hbWVkdmlldyBib3JkZXJjb2xvcj0iIzY2NjY2NiIgYm9yZGVyb3BhY2l0eT0iMSIgZml0LW1hcmdpbi1ib3R0b209IjAiIGZpdC1tYXJnaW4tbGVmdD0iMCIgZml0LW1hcmdpbi1yaWdodD0iMCIgZml0LW1hcmdpbi10b3A9IjAiIGdyaWR0b2xlcmFuY2U9IjEwIiBndWlkZXRvbGVyYW5jZT0iMTAiIGlkPSJuYW1lZHZpZXc3Nzc0MCIgaW5rc2NhcGU6Y3VycmVudC1sYXllcj0ic3ZnNzc3MzgiIGlua3NjYXBlOmN4PSItMjEuMzc1NzIyIiBpbmtzY2FwZTpjeT0iMzMuOTg2NjM2IiBpbmtzY2FwZTpwYWdlb3BhY2l0eT0iMCIgaW5rc2NhcGU6cGFnZXNoYWRvdz0iMiIgaW5rc2NhcGU6d2luZG93LWhlaWdodD0iMTAxNyIgaW5rc2NhcGU6d2luZG93LW1heGltaXplZD0iMSIgaW5rc2NhcGU6d2luZG93LXdpZHRoPSIxOTIwIiBpbmtzY2FwZTp3aW5kb3cteD0iLTgiIGlua3NjYXBlOndpbmRvdy15PSItOCIgaW5rc2NhcGU6em9vbT0iNi4wMDM3Mzk3IiBvYmplY3R0b2xlcmFuY2U9IjEwIiBwYWdlY29sb3I9IiNmZmZmZmYiIHNob3dncmlkPSJmYWxzZSI+JiN4YTsJPC9zb2RpcG9kaTpuYW1lZHZpZXc+JiN4YTsmI3hhOzxwYXRoIGlkPSJwYXRoNzc3MjMiIGlua3NjYXBlOmNvbm5lY3Rvci1jdXJ2YXR1cmU9IjAiIHN0eWxlPSJmaWxsOiMzOTk5YzYiIGQ9Ik0gNDguNDQsNi42NCA0Ni4wNywyLjU0IEMgNDUuMTYsMC45OCA0My40NCwwIDQxLjY0LDAgSCA1LjA4IEMgMi4zLDAgMCwyLjI5IDAsNS4wOCBWIDcuNDYgNy43IEggNDkuMzQgQyA0OC45Myw3LjQ2IDQ4LjY5LDcuMDUgNDguNDQsNi42NCBaIi8+JiN4YTsmI3hhOzxwYXRoIGlkPSJwYXRoNzc3MzEiIGlua3NjYXBlOmNvbm5lY3Rvci1jdXJ2YXR1cmU9IjAiIHN0eWxlPSJmaWxsOiM1OWI0ZDkiIGQ9Ik0gNzguNzcsMTAuMzMgSCAwIHYgMy43NyA0NS4xNiBjIDAsMi43OSAyLjMsNS4wOCA1LjA4LDUuMDggaCA3MS44MSBjIDIuNzgsMCA1LjA4LC0yLjI5IDUuMDgsLTUuMDggViAxNSBjIDAsLTIuMDUgLTEuMzEsLTMuODUgLTMuMiwtNC42NyB6IE0gNTEuMzksMzQuOTIgMzYuODksNTUuNjYgYyAtMC4xNywwLjE2IC0wLjMzLDAuMzIgLTAuNTgsMC4zMiAtMC4wOCwwIC0wLjI0LDAgLTAuMzMsLTAuMDggLTAuMzIsLTAuMTYgLTAuNDksLTAuNDkgLTAuMzIsLTAuODIgbCAzLjc3LC0xMi4zNyBoIC04LjQ1IGMgLTAuMjQsMCAtMC40OSwtMC4xNyAtMC42NSwtMC40MSAtMC4wOCwtMC4yNSAtMC4wOCwtMC41IDAuMDgsLTAuNzQgbCAxNC4xLC0yMC40OSBjIDAuMTYsLTAuMTcgMC4zMywtMC4zMyAwLjU3LC0wLjMzIDAuMDgsMCAwLjE3LDAgMC4zMywwLjA4IDAuMzMsMC4xNiAwLjQ5LDAuNDkgMC4zMywwLjgyIGwgLTMuNjEsMTIuMTMgaCA4LjY5IGMgMC40MSwwIDAuNzQsMC4zMyAwLjc0LDAuNzQgMCwwLjE2IC0wLjA4LDAuMjQgLTAuMTcsMC40MSB6Ii8+JiN4YTs8L3N2Zz4=;fontFamily=Helvetica;align=center;html=1;fontStyle=4;" vertex="1" parent="1">
          <mxGeometry x="500" y="470" width="51.26" height="40" as="geometry" />
        </mxCell>
        <mxCell id="L6lzIBZe05wMHwi8EpyU-42" value="" style="edgeStyle=elbowEdgeStyle;rounded=0;orthogonalLoop=1;jettySize=auto;html=1;labelBackgroundColor=none;fontColor=default;" edge="1" parent="1" source="L6lzIBZe05wMHwi8EpyU-12">
          <mxGeometry relative="1" as="geometry">
            <mxPoint x="290" y="250" as="targetPoint" />
            <Array as="points">
              <mxPoint x="290" y="300" />
            </Array>
          </mxGeometry>
        </mxCell>
        <mxCell id="L6lzIBZe05wMHwi8EpyU-12" value="Azure Blob Storage" style="shape=image;verticalLabelPosition=bottom;labelBackgroundColor=none;verticalAlign=top;aspect=fixed;imageAspect=0;image=data:image/svg+xml,PHN2ZyB4bWxuczpjYz0iaHR0cDovL2NyZWF0aXZlY29tbW9ucy5vcmcvbnMjIiB4bWxuczpkYz0iaHR0cDovL3B1cmwub3JnL2RjL2VsZW1lbnRzLzEuMS8iIHhtbG5zOmlua3NjYXBlPSJodHRwOi8vd3d3Lmlua3NjYXBlLm9yZy9uYW1lc3BhY2VzL2lua3NjYXBlIiB4bWxuczpyZGY9Imh0dHA6Ly93d3cudzMub3JnLzE5OTkvMDIvMjItcmRmLXN5bnRheC1ucyMiIHhtbG5zOnNvZGlwb2RpPSJodHRwOi8vc29kaXBvZGkuc291cmNlZm9yZ2UubmV0L0RURC9zb2RpcG9kaS0wLmR0ZCIgeG1sbnM6c3ZnPSJodHRwOi8vd3d3LnczLm9yZy8yMDAwL3N2ZyIgeG1sbnM9Imh0dHA6Ly93d3cudzMub3JnLzIwMDAvc3ZnIiB4bWxuczp4bGluaz0iaHR0cDovL3d3dy53My5vcmcvMTk5OS94bGluayIgdmVyc2lvbj0iMS4xIiBpZD0ic3ZnNTUzNjYiIGlua3NjYXBlOnZlcnNpb249IjAuOTIuMyAoMjQwNTU0NiwgMjAxOC0wMy0xMSkiIHNvZGlwb2RpOmRvY25hbWU9ImF6dXJlX2Jsb2Jfc3RvcmFnZS5zdmciIHg9IjBweCIgeT0iMHB4IiB2aWV3Qm94PSIwIDAgNDggNDAuOTkiIHN0eWxlPSJlbmFibGUtYmFja2dyb3VuZDpuZXcgMCAwIDQ4IDQwLjk5OyIgeG1sOnNwYWNlPSJwcmVzZXJ2ZSI+JiN4YTs8c29kaXBvZGk6bmFtZWR2aWV3IGJvcmRlcmNvbG9yPSIjNjY2NjY2IiBib3JkZXJvcGFjaXR5PSIxIiBmaXQtbWFyZ2luLWJvdHRvbT0iMCIgZml0LW1hcmdpbi1sZWZ0PSIwIiBmaXQtbWFyZ2luLXJpZ2h0PSIwIiBmaXQtbWFyZ2luLXRvcD0iMCIgZ3JpZHRvbGVyYW5jZT0iMTAiIGd1aWRldG9sZXJhbmNlPSIxMCIgaWQ9Im5hbWVkdmlldzU1MzY4IiBpbmtzY2FwZTpjdXJyZW50LWxheWVyPSJzdmc1NTM2NiIgaW5rc2NhcGU6Y3g9IjQ5LjQ2MTI0NiIgaW5rc2NhcGU6Y3k9IjIzLjk2Nzc0MiIgaW5rc2NhcGU6cGFnZW9wYWNpdHk9IjAiIGlua3NjYXBlOnBhZ2VzaGFkb3c9IjIiIGlua3NjYXBlOndpbmRvdy1oZWlnaHQ9IjEwMTciIGlua3NjYXBlOndpbmRvdy1tYXhpbWl6ZWQ9IjEiIGlua3NjYXBlOndpbmRvdy13aWR0aD0iMTkyMCIgaW5rc2NhcGU6d2luZG93LXg9Ii04IiBpbmtzY2FwZTp3aW5kb3cteT0iLTgiIGlua3NjYXBlOnpvb209IjEwLjgyMDc2NSIgb2JqZWN0dG9sZXJhbmNlPSIxMCIgcGFnZWNvbG9yPSIjZmZmZmZmIiBzaG93Z3JpZD0iZmFsc2UiPiYjeGE7CTwvc29kaXBvZGk6bmFtZWR2aWV3PiYjeGE7PGcgaWQ9Imc1NTM2NCIgdHJhbnNmb3JtPSJ0cmFuc2xhdGUoLTAuNzUsLTAuNzU0KSI+JiN4YTsJPHRpdGxlIGlkPSJ0aXRsZTU1MzI0Ij5QYWdlLTE8L3RpdGxlPiYjeGE7CTxnIGlkPSJncm91cDUyMTYtMSIgdHJhbnNmb3JtPSJ0cmFuc2xhdGUoMC43NSwtMC43NSkiPiYjeGE7CQk8dGl0bGUgaWQ9InRpdGxlNTUzMjYiPkF6dXJlIEJsb2IgU3RvcmFnZTwvdGl0bGU+JiN4YTsJCTxnIGlkPSJzaGFwZTUyMTctMiI+JiN4YTsJCQk8dGl0bGUgaWQ9InRpdGxlNTUzMjgiPlNoZWV0LjUyMTc8L3RpdGxlPiYjeGE7CQkJPHBhdGggaWQ9InBhdGg1NTMzMCIgaW5rc2NhcGU6Y29ubmVjdG9yLWN1cnZhdHVyZT0iMCIgc3R5bGU9ImZpbGw6I0EwQTFBMjsiIGQ9Ik0wLDQwLjY3YzAsMC45NiwwLjc3LDEuODIsMS43MywxLjgyaDQ0LjQ1ICAgICBjMC45NiwwLDEuODItMC43NywxLjgyLTEuODJWOC44OUgwVjQwLjY3eiIvPiYjeGE7CQk8L2c+JiN4YTsJCTxnIGlkPSJzaGFwZTUyMTgtNCIgdHJhbnNmb3JtPSJ0cmFuc2xhdGUoMCwtMzMuNjk2KSI+JiN4YTsJCQk8dGl0bGUgaWQ9InRpdGxlNTUzMzMiPlNoZWV0LjUyMTg8L3RpdGxlPiYjeGE7CQkJPHBhdGggaWQ9InBhdGg1NTMzNSIgaW5rc2NhcGU6Y29ubmVjdG9yLWN1cnZhdHVyZT0iMCIgc3R5bGU9ImZpbGw6IzdBN0E3QTsiIGQ9Ik00Ni4xOCwzNS4ySDEuNzNDMC43NywzNS4yLDAsMzYuMDYsMCwzNy4wMiAgICAgdjUuNDdoNDh2LTUuNDdDNDgsMzYuMDYsNDcuMjMsMzUuMiw0Ni4xOCwzNS4yeiIvPiYjeGE7CQk8L2c+JiN4YTsJCTxnIGlkPSJzaGFwZTUyMTktNiIgdHJhbnNmb3JtPSJ0cmFuc2xhdGUoMy41NTIsLTE3Ljg1NikiPiYjeGE7CQkJPHRpdGxlIGlkPSJ0aXRsZTU1MzM4Ij5TaGVldC41MjE5PC90aXRsZT4mI3hhOwkJCTxyZWN0IGlkPSJyZWN0NTUzNDAiIHg9IjAiIHk9IjMwLjAxIiBzdHlsZT0iZmlsbDojMDA3MkM2OyIgd2lkdGg9IjE5LjU4IiBoZWlnaHQ9IjEyLjQ4Ii8+JiN4YTsJCTwvZz4mI3hhOwkJPGcgaWQ9InNoYXBlNTIyMC04IiB0cmFuc2Zvcm09InRyYW5zbGF0ZSgzLjU1MiwtMy42NDgpIj4mI3hhOwkJCTx0aXRsZSBpZD0idGl0bGU1NTM0MyI+U2hlZXQuNTIyMDwvdGl0bGU+JiN4YTsJCQk8cmVjdCBpZD0icmVjdDU1MzQ1IiB4PSIwIiB5PSIzMC4wMSIgc3R5bGU9ImZpbGw6IzAwNzJDNjsiIHdpZHRoPSIxOS41OCIgaGVpZ2h0PSIxMi40OCIvPiYjeGE7CQk8L2c+JiN4YTsJCTxnIGlkPSJzaGFwZTUyMjEtMTAiIHRyYW5zZm9ybT0idHJhbnNsYXRlKDI0Ljg2NCwtMTcuODU2KSI+JiN4YTsJCQk8dGl0bGUgaWQ9InRpdGxlNTUzNDgiPlNoZWV0LjUyMjE8L3RpdGxlPiYjeGE7CQkJPHJlY3QgaWQ9InJlY3Q1NTM1MCIgeD0iMCIgeT0iMzAuMDEiIHN0eWxlPSJmaWxsOiNGRkZGRkY7IiB3aWR0aD0iMTkuNDkiIGhlaWdodD0iMTIuNDgiLz4mI3hhOwkJPC9nPiYjeGE7CQk8ZyBpZD0ic2hhcGU1MjIyLTEyIiB0cmFuc2Zvcm09InRyYW5zbGF0ZSgyNC44NjQsLTMuNjQ4KSI+JiN4YTsJCQk8dGl0bGUgaWQ9InRpdGxlNTUzNTMiPlNoZWV0LjUyMjI8L3RpdGxlPiYjeGE7CQkJPHJlY3QgaWQ9InJlY3Q1NTM1NSIgeD0iMCIgeT0iMzAuMDEiIHN0eWxlPSJmaWxsOiMwMDcyQzY7IiB3aWR0aD0iMTkuNDkiIGhlaWdodD0iMTIuNDgiLz4mI3hhOwkJPC9nPiYjeGE7CQk8ZyBpZD0ic2hhcGU1MjIzLTE0IiB0cmFuc2Zvcm09InRyYW5zbGF0ZSgwLC0wLjA5NikiPiYjeGE7CQkJPHRpdGxlIGlkPSJ0aXRsZTU1MzU4Ij5TaGVldC41MjIzPC90aXRsZT4mI3hhOwkJCTxwYXRoIGlkPSJwYXRoNTUzNjAiIGlua3NjYXBlOmNvbm5lY3Rvci1jdXJ2YXR1cmU9IjAiIHN0eWxlPSJmaWxsOiNGRkZGRkY7ZmlsbC1vcGFjaXR5OjAuMjsiIGQ9Ik0xLjkyLDEuNiAgICAgQzAuODYsMS42LDAsMi40NiwwLDMuNTJ2N3YzLjE3djI2Ljg4YzAsMS4wNiwwLjg2LDEuOTIsMS45MiwxLjkyaDIuMTFMNDEuODYsMS42SDEuOTJ6Ii8+JiN4YTsJCTwvZz4mI3hhOwk8L2c+JiN4YTs8L2c+JiN4YTs8L3N2Zz4=;" vertex="1" parent="1">
          <mxGeometry x="250" y="360" width="35.12" height="30" as="geometry" />
        </mxCell>
        <mxCell id="L6lzIBZe05wMHwi8EpyU-14" value="Key Vault" style="shape=image;verticalLabelPosition=bottom;labelBackgroundColor=none;verticalAlign=top;aspect=fixed;imageAspect=0;image=data:image/svg+xml,PHN2ZyB4bWxuczpkYz0iaHR0cDovL3B1cmwub3JnL2RjL2VsZW1lbnRzLzEuMS8iIHhtbG5zOmNjPSJodHRwOi8vY3JlYXRpdmVjb21tb25zLm9yZy9ucyMiIHhtbG5zOnJkZj0iaHR0cDovL3d3dy53My5vcmcvMTk5OS8wMi8yMi1yZGYtc3ludGF4LW5zIyIgeG1sbnM6c3ZnPSJodHRwOi8vd3d3LnczLm9yZy8yMDAwL3N2ZyIgeG1sbnM9Imh0dHA6Ly93d3cudzMub3JnLzIwMDAvc3ZnIiB4bWxuczpzb2RpcG9kaT0iaHR0cDovL3NvZGlwb2RpLnNvdXJjZWZvcmdlLm5ldC9EVEQvc29kaXBvZGktMC5kdGQiIHhtbG5zOmlua3NjYXBlPSJodHRwOi8vd3d3Lmlua3NjYXBlLm9yZy9uYW1lc3BhY2VzL2lua3NjYXBlIiB2ZXJzaW9uPSIxLjEiIGlkPSJzdmc4MjQ1OSIgaW5rc2NhcGU6dmVyc2lvbj0iMC45Mi4zICgyNDA1NTQ2LCAyMDE4LTAzLTExKSIgc29kaXBvZGk6ZG9jbmFtZT0ia2V5X3ZhdWx0LnN2ZyIgeD0iMHB4IiB5PSIwcHgiIHZpZXdCb3g9IjAgMCA4OS42OSAxMDAuMTEiIHN0eWxlPSJlbmFibGUtYmFja2dyb3VuZDpuZXcgMCAwIDg5LjY5IDEwMC4xMTsiIHhtbDpzcGFjZT0icHJlc2VydmUiPjxtZXRhZGF0YSBpZD0ibWV0YWRhdGEyMzQ4Ij48cmRmOlJERj48Y2M6V29yayByZGY6YWJvdXQ9IiI+PGRjOmZvcm1hdD5pbWFnZS9zdmcreG1sPC9kYzpmb3JtYXQ+PGRjOnR5cGUgcmRmOnJlc291cmNlPSJodHRwOi8vcHVybC5vcmcvZGMvZGNtaXR5cGUvU3RpbGxJbWFnZSIvPjxkYzp0aXRsZS8+PC9jYzpXb3JrPjwvcmRmOlJERj48L21ldGFkYXRhPjxkZWZzIGlkPSJkZWZzMjM0NiIvPiYjeGE7PGZpbHRlciBpZD0iZmlsdGVyXzIiPiYjeGE7CTxmZUdhdXNzaWFuQmx1ciBpZD0iZmVHYXVzc2lhbkJsdXI4MjQzMiIgc3RkRGV2aWF0aW9uPSIyIi8+JiN4YTs8L2ZpbHRlcj4mI3hhOzxzb2RpcG9kaTpuYW1lZHZpZXcgYm9yZGVyY29sb3I9IiM2NjY2NjYiIGJvcmRlcm9wYWNpdHk9IjEiIGZpdC1tYXJnaW4tYm90dG9tPSIwIiBmaXQtbWFyZ2luLWxlZnQ9IjAiIGZpdC1tYXJnaW4tcmlnaHQ9IjAiIGZpdC1tYXJnaW4tdG9wPSIwIiBncmlkdG9sZXJhbmNlPSIxMCIgZ3VpZGV0b2xlcmFuY2U9IjEwIiBpZD0ibmFtZWR2aWV3ODI0NjEiIGlua3NjYXBlOmN1cnJlbnQtbGF5ZXI9InN2ZzgyNDU5IiBpbmtzY2FwZTpjeD0iNzMuODY0NzI3IiBpbmtzY2FwZTpjeT0iNTIuMzM5MjAxIiBpbmtzY2FwZTpwYWdlb3BhY2l0eT0iMCIgaW5rc2NhcGU6cGFnZXNoYWRvdz0iMiIgaW5rc2NhcGU6d2luZG93LWhlaWdodD0iMTAxNyIgaW5rc2NhcGU6d2luZG93LW1heGltaXplZD0iMSIgaW5rc2NhcGU6d2luZG93LXdpZHRoPSIxOTIwIiBpbmtzY2FwZTp3aW5kb3cteD0iLTgiIGlua3NjYXBlOndpbmRvdy15PSItOCIgaW5rc2NhcGU6em9vbT0iMy42OTA2MTY0IiBvYmplY3R0b2xlcmFuY2U9IjEwIiBwYWdlY29sb3I9IiNmZmZmZmYiIHNob3dncmlkPSJmYWxzZSI+JiN4YTsJPC9zb2RpcG9kaTpuYW1lZHZpZXc+JiN4YTsmI3hhOzxwYXRoIGlkPSJwYXRoODI0NDUiIGlua3NjYXBlOmNvbm5lY3Rvci1jdXJ2YXR1cmU9IjAiIHN0eWxlPSJmaWxsOiM3RkJBMDA7IiBkPSJNODkuNjksNTUuMjZjMC0xNC42Mi03LTI3LjQzLTE3LjYxLTM1LjY0ICBjMCwwLjQsMCwxLDAsMS40YzAsNC40MS0xLjIxLDguNjEtMy4wMSwxMi4yMWM1LjIxLDUuODEsOC40MSwxMy40Miw4LjQxLDIxLjgzYzAsMTguMDItMTQuNjEsMzIuNjMtMzIuNjMsMzIuNjMgIFMxMi4yMSw3My4wOCwxMi4yMSw1NS4wNmMwLTkuMDEsMy42MS0xNy4wMiw5LjQxLTIzLjAzYy0xLjYtMy40LTIuNi03LjItMi42LTExLjIxYzAtMC44LDAtMS44LDAuMi0yLjZDNy42MSwyNi4yMywwLDM5Ljg0LDAsNTUuMDYgIGMwLDI1LjAyLDIwLjAyLDQ1LjA1LDQ0Ljg1LDQ1LjA1QzY5LjY3LDEwMC4xMSw4OS42OSw4MC4wOCw4OS42OSw1NS4yNnoiLz4mI3hhOyYjeGE7PHBhdGggaWQ9InBhdGg4MjQ1MyIgaW5rc2NhcGU6Y29ubmVjdG9yLWN1cnZhdHVyZT0iMCIgc3R5bGU9ImZpbGw6I0ZDRDExNjsiIGQ9Ik00NS40NSwwQzM0LjA0LDAsMjQuODMsOS4yMSwyNC44MywyMC42MiAgYzAsOS40MSw2LjIxLDE3LjIyLDE0LjgyLDE5LjgydjIwLjQzaC05LjYxdjEwLjQxaDkuNjF2Ny42MWgxMS40MVY0MC4yNGM4LjYxLTIuNCwxNC44MS0xMC40MSwxNC44MS0xOS44MiAgQzY2LjA3LDkuMjEsNTYuODYsMCw0NS40NSwweiBNNDUuNDUsMTAuODFjNS40MSwwLDkuODEsNC40MSw5LjgxLDkuODFjMCw1LjQxLTQuNCw5LjgxLTkuODEsOS44MWMtNS40LDAtOS44MS00LjQtOS44MS05LjgxICBDMzUuNjQsMTUuMjIsNDAuMDUsMTAuODEsNDUuNDUsMTAuODF6Ii8+JiN4YTs8L3N2Zz4=;" vertex="1" parent="1">
          <mxGeometry x="210" y="630" width="18" height="20" as="geometry" />
        </mxCell>
        <mxCell id="L6lzIBZe05wMHwi8EpyU-16" value="Mobile Devices" style="shape=image;verticalLabelPosition=bottom;verticalAlign=top;imageAspect=0;aspect=fixed;image=data:image/svg+xml,PHN2ZyB4bWxuczpkYz0iaHR0cDovL3B1cmwub3JnL2RjL2VsZW1lbnRzLzEuMS8iIHhtbG5zOmNjPSJodHRwOi8vY3JlYXRpdmVjb21tb25zLm9yZy9ucyMiIHhtbG5zOnJkZj0iaHR0cDovL3d3dy53My5vcmcvMTk5OS8wMi8yMi1yZGYtc3ludGF4LW5zIyIgeG1sbnM6c3ZnPSJodHRwOi8vd3d3LnczLm9yZy8yMDAwL3N2ZyIgeG1sbnM9Imh0dHA6Ly93d3cudzMub3JnLzIwMDAvc3ZnIiB4bWxuczpzb2RpcG9kaT0iaHR0cDovL3NvZGlwb2RpLnNvdXJjZWZvcmdlLm5ldC9EVEQvc29kaXBvZGktMC5kdGQiIHhtbG5zOmlua3NjYXBlPSJodHRwOi8vd3d3Lmlua3NjYXBlLm9yZy9uYW1lc3BhY2VzL2lua3NjYXBlIiB2ZXJzaW9uPSIxLjEiIGlkPSJMYXllcl8xIiB4PSIwcHgiIHk9IjBweCIgd2lkdGg9IjUwIiBoZWlnaHQ9IjUwIiB2aWV3Qm94PSIwIDAgNTAgNTAiIGVuYWJsZS1iYWNrZ3JvdW5kPSJuZXcgMCAwIDUwIDUwIiB4bWw6c3BhY2U9InByZXNlcnZlIiBzb2RpcG9kaTpkb2NuYW1lPSJkZXZpY2VzX2dyb3Vwcy5zdmciIGlua3NjYXBlOnZlcnNpb249IjAuOTIuMyAoMjQwNTU0NiwgMjAxOC0wMy0xMSkiPjxtZXRhZGF0YSBpZD0ibWV0YWRhdGExMDkwOSI+PHJkZjpSREY+PGNjOldvcmsgcmRmOmFib3V0PSIiPjxkYzpmb3JtYXQ+aW1hZ2Uvc3ZnK3htbDwvZGM6Zm9ybWF0PjxkYzp0eXBlIHJkZjpyZXNvdXJjZT0iaHR0cDovL3B1cmwub3JnL2RjL2RjbWl0eXBlL1N0aWxsSW1hZ2UiLz48ZGM6dGl0bGUvPjwvY2M6V29yaz48L3JkZjpSREY+PC9tZXRhZGF0YT48ZGVmcyBpZD0iZGVmczEwOTA3Ii8+PHNvZGlwb2RpOm5hbWVkdmlldyBwYWdlY29sb3I9IiNmZmZmZmYiIGJvcmRlcmNvbG9yPSIjNjY2NjY2IiBib3JkZXJvcGFjaXR5PSIxIiBvYmplY3R0b2xlcmFuY2U9IjEwIiBncmlkdG9sZXJhbmNlPSIxMCIgZ3VpZGV0b2xlcmFuY2U9IjEwIiBpbmtzY2FwZTpwYWdlb3BhY2l0eT0iMCIgaW5rc2NhcGU6cGFnZXNoYWRvdz0iMiIgaW5rc2NhcGU6d2luZG93LXdpZHRoPSIxOTIwIiBpbmtzY2FwZTp3aW5kb3ctaGVpZ2h0PSIxMDE3IiBpZD0ibmFtZWR2aWV3MTA5MDUiIHNob3dncmlkPSJmYWxzZSIgZml0LW1hcmdpbi10b3A9IjAiIGZpdC1tYXJnaW4tbGVmdD0iMCIgZml0LW1hcmdpbi1yaWdodD0iMCIgZml0LW1hcmdpbi1ib3R0b209IjAiIGlua3NjYXBlOnpvb209IjE3IiBpbmtzY2FwZTpjeD0iMjUiIGlua3NjYXBlOmN5PSIyNSIgaW5rc2NhcGU6d2luZG93LXg9Ii04IiBpbmtzY2FwZTp3aW5kb3cteT0iLTgiIGlua3NjYXBlOndpbmRvdy1tYXhpbWl6ZWQ9IjEiIGlua3NjYXBlOmN1cnJlbnQtbGF5ZXI9IkxheWVyXzEiLz4mI3hhOzxwYXRoIGQ9Im0gNDYsMzMgYyAwLDEuNjU3IC0xLjM1OSwzIC0zLjAzNiwzIEggMy4wMzYgQyAxLjM1OSwzNiAwLDM0LjY1NyAwLDMzIFYgMyBDIDAsMS4zNDMgMS4zNTksMCAzLjAzNiwwIEggNDIuOTY0IEMgNDQuNjQxLDAgNDYsMS4zNDMgNDYsMyBaIiBpZD0icGF0aDEwODg4IiBpbmtzY2FwZTpjb25uZWN0b3ItY3VydmF0dXJlPSIwIiBzdHlsZT0iZmlsbDojM2UzZTNlIi8+JiN4YTs8cmVjdCB4PSIyLjk2MTk5OTkiIHk9IjUiIHdpZHRoPSI0MC4wMzc5OTgiIGhlaWdodD0iMjYiIGlkPSJyZWN0MTA4OTAiIHN0eWxlPSJmaWxsOiMzOTk5YzYiLz4mI3hhOzxwYXRoIGQ9Im0gMjYsMi42ODkgYyAwLDAuMzggLTAuMzA4LDAuNjg4IC0wLjY4OCwwLjY4OCBIIDIwLjg5IEMgMjAuNTA5LDMuMzc3IDIwLjIsMy4wNjkgMjAuMiwyLjY4OSAyMC4yLDIuMzA5IDIwLjUwOSwyIDIwLjg5LDIgaCA0LjQyMiBDIDI1LjY5MiwyIDI2LDIuMzA5IDI2LDIuNjg5IiBpZD0icGF0aDEwODkyIiBpbmtzY2FwZTpjb25uZWN0b3ItY3VydmF0dXJlPSIwIiBzdHlsZT0iZmlsbDojZmZmZmZmIi8+JiN4YTs8cGF0aCBlbmFibGUtYmFja2dyb3VuZD0ibmV3ICAgICIgZD0iTSAzMSwwIEggMyBDIDEuMzQzLDAgMCwxLjM0MyAwLDMgdiAzMCBjIDAsMS42NTggMS4zNDMsMyAzLDMgaCAxMiB6IiBpZD0icGF0aDEwODk0IiBpbmtzY2FwZTpjb25uZWN0b3ItY3VydmF0dXJlPSIwIiBzdHlsZT0ib3BhY2l0eTowLjE1O2ZpbGw6I2ZmZmZmZiIvPiYjeGE7PHBhdGggZD0iTSA1MCw0Ny41NDUgQyA1MCw0OC45MDEgNDguOTEzLDUwIDQ3LjU3Miw1MCBIIDI5LjQyOCBDIDI4LjA4Nyw1MCAyNyw0OC45MDEgMjcsNDcuNTQ1IFYgMTYuNDU1IEMgMjcsMTUuMDk5IDI4LjA4NywxNCAyOS40MjgsMTQgSCA0Ny41NzEgQyA0OC45MTMsMTQgNTAsMTUuMDk5IDUwLDE2LjQ1NSBaIiBpZD0icGF0aDEwODk2IiBpbmtzY2FwZTpjb25uZWN0b3ItY3VydmF0dXJlPSIwIiBzdHlsZT0iZmlsbDojM2UzZTNlIi8+JiN4YTs8cmVjdCB4PSIyOSIgeT0iMTgiIHdpZHRoPSIxOSIgaGVpZ2h0PSIyNyIgaWQ9InJlY3QxMDg5OCIgc3R5bGU9ImZpbGw6IzU5YjRkOSIvPiYjeGE7PHBhdGggZD0ibSA0Mi42MDcsMTYuMTcxIGMgMCwwLjMzNSAtMC40MzYsMC42MDYgLTAuOTc0LDAuNjA2IEggMzUuMzcgYyAtMC41NCwwIC0wLjk3NywtMC4yNzEgLTAuOTc3LC0wLjYwNiAwLC0wLjMzNSAwLjQzNywtMC42MDcgMC45NzcsLTAuNjA3IGggNi4yNjMgYyAwLjUzOCwwIDAuOTc0LDAuMjcyIDAuOTc0LDAuNjA3IiBpZD0icGF0aDEwOTAwIiBpbmtzY2FwZTpjb25uZWN0b3ItY3VydmF0dXJlPSIwIiBzdHlsZT0iZmlsbDojZmZmZmZmIi8+JiN4YTs8cGF0aCBlbmFibGUtYmFja2dyb3VuZD0ibmV3ICAgICIgZD0iTSA0NS4wODksMTQgSCAyOS40NjQgQyAyOC4xMDMsMTQgMjcsMTUuMDk5IDI3LDE2LjQ1NSBWIDQ3LjU0NiBDIDI3LDQ4LjkwMiAyOC4xMDMsNTAgMjkuNDY0LDUwIEggMzEuNiBaIiBpZD0icGF0aDEwOTAyIiBpbmtzY2FwZTpjb25uZWN0b3ItY3VydmF0dXJlPSIwIiBzdHlsZT0ib3BhY2l0eTowLjE1O2ZpbGw6I2ZmZmZmZiIvPiYjeGE7PC9zdmc+;labelBackgroundColor=none;" vertex="1" parent="1">
          <mxGeometry x="100" y="300" width="40" height="40" as="geometry" />
        </mxCell>
        <mxCell id="L6lzIBZe05wMHwi8EpyU-18" value="App Services" style="image;sketch=0;aspect=fixed;html=1;points=[];align=center;fontSize=12;image=img/lib/mscae/App_Services.svg;labelBackgroundColor=none;" vertex="1" parent="1">
          <mxGeometry x="100" y="389" width="41" height="41" as="geometry" />
        </mxCell>
        <mxCell id="L6lzIBZe05wMHwi8EpyU-28" value="&lt;font style=&quot;font-size: 12px;&quot;&gt;Enrich&lt;/font&gt;" style="edgeStyle=orthogonalEdgeStyle;rounded=0;orthogonalLoop=1;jettySize=auto;html=1;labelBackgroundColor=none;fontColor=default;" edge="1" parent="1">
          <mxGeometry x="-0.3566" y="13" relative="1" as="geometry">
            <mxPoint x="420.63" y="242.59" as="sourcePoint" />
            <mxPoint x="630.63" y="372.59" as="targetPoint" />
            <Array as="points">
              <mxPoint x="630.63" y="242.59" />
              <mxPoint x="630.63" y="362.59" />
            </Array>
            <mxPoint as="offset" />
          </mxGeometry>
        </mxCell>
        <mxCell id="L6lzIBZe05wMHwi8EpyU-19" value="Azure Synapse Analytics" style="shape=image;verticalLabelPosition=bottom;labelBackgroundColor=none;verticalAlign=top;aspect=fixed;imageAspect=0;image=data:image/svg+xml,PHN2ZyB4bWxuczpkYz0iaHR0cDovL3B1cmwub3JnL2RjL2VsZW1lbnRzLzEuMS8iIHhtbG5zOmNjPSJodHRwOi8vY3JlYXRpdmVjb21tb25zLm9yZy9ucyMiIHhtbG5zOnJkZj0iaHR0cDovL3d3dy53My5vcmcvMTk5OS8wMi8yMi1yZGYtc3ludGF4LW5zIyIgeG1sbnM6c3ZnPSJodHRwOi8vd3d3LnczLm9yZy8yMDAwL3N2ZyIgeG1sbnM9Imh0dHA6Ly93d3cudzMub3JnLzIwMDAvc3ZnIiB4bWxuczpzb2RpcG9kaT0iaHR0cDovL3NvZGlwb2RpLnNvdXJjZWZvcmdlLm5ldC9EVEQvc29kaXBvZGktMC5kdGQiIHhtbG5zOmlua3NjYXBlPSJodHRwOi8vd3d3Lmlua3NjYXBlLm9yZy9uYW1lc3BhY2VzL2lua3NjYXBlIiB2ZXJzaW9uPSIxLjEiIGlkPSJzdmc5NTc5NiIgaW5rc2NhcGU6dmVyc2lvbj0iMC45Mi4zICgyNDA1NTQ2LCAyMDE4LTAzLTExKSIgc29kaXBvZGk6ZG9jbmFtZT0ic3FsX2RhdGFfd2FyZWhvdXNlLnN2ZyIgeD0iMHB4IiB5PSIwcHgiIHZpZXdCb3g9IjAgMCA5OC44MyA5Ni4xIiB4bWw6c3BhY2U9InByZXNlcnZlIiB3aWR0aD0iOTguODMwMDAyIiBoZWlnaHQ9Ijk2LjA5OTk5OCI+PG1ldGFkYXRhIGlkPSJtZXRhZGF0YTE0OTkiPjxyZGY6UkRGPjxjYzpXb3JrIHJkZjphYm91dD0iIj48ZGM6Zm9ybWF0PmltYWdlL3N2Zyt4bWw8L2RjOmZvcm1hdD48ZGM6dHlwZSByZGY6cmVzb3VyY2U9Imh0dHA6Ly9wdXJsLm9yZy9kYy9kY21pdHlwZS9TdGlsbEltYWdlIi8+PGRjOnRpdGxlLz48L2NjOldvcms+PC9yZGY6UkRGPjwvbWV0YWRhdGE+PGRlZnMgaWQ9ImRlZnMxNDk3Ij4mI3hhOwkmI3hhOyYjeGE7CSYjeGE7JiN4YTsJJiN4YTsmI3hhOwkmI3hhOyYjeGE7CSYjeGE7JiN4YTsJJiN4YTsmI3hhOwkmI3hhOyYjeGE7CSYjeGE7JiN4YTsJJiN4YTsmI3hhOwkmI3hhOyYjeGE7CSYjeGE7JiN4YTsJJiN4YTsmI3hhOwkmI3hhOyYjeGE7CSYjeGE7JiN4YTsJJiN4YTsmI3hhOwkmI3hhOyYjeGE7CSYjeGE7JiN4YTsJJiN4YTsmI3hhOwkmI3hhOyYjeGE7CSYjeGE7JiN4YTsJJiN4YTsmI3hhOwkmI3hhOyYjeGE7CSYjeGE7JiN4YTsJJiN4YTsmI3hhOwkmI3hhOyYjeGE7CSYjeGE7JiN4YTsJJiN4YTsmI3hhOwkmI3hhOyYjeGE7CSYjeGE7JiN4YTsJJiN4YTsmI3hhOwkmI3hhOwkmI3hhOwkmI3hhOyYjeGE7CSYjeGE7CSYjeGE7CSYjeGE7JiN4YTsJJiN4YTsJJiN4YTsJJiN4YTsmI3hhOwkJJiN4YTsJJiN4YTsJCSYjeGE7CSYjeGE7CQkmI3hhOwkmI3hhOwkJJiN4YTsJJiN4YTsJCSYjeGE7CSYjeGE7CQkmI3hhOwkmI3hhOwkJJiN4YTsJJiN4YTsJCSYjeGE7CSYjeGE7CQkJJiN4YTsJCSYjeGE7CQkJJiN4YTsJCTwvZGVmcz4mI3hhOzxmaWx0ZXIgaWQ9ImZpbHRlcl8yIj4mI3hhOwk8ZmVHYXVzc2lhbkJsdXIgaWQ9ImZlR2F1c3NpYW5CbHVyOTU1MTIiIHN0ZERldmlhdGlvbj0iMiIvPiYjeGE7PC9maWx0ZXI+JiN4YTs8c29kaXBvZGk6bmFtZWR2aWV3IGJvcmRlcmNvbG9yPSIjNjY2NjY2IiBib3JkZXJvcGFjaXR5PSIxIiBmaXQtbWFyZ2luLWJvdHRvbT0iMCIgZml0LW1hcmdpbi1sZWZ0PSIwIiBmaXQtbWFyZ2luLXJpZ2h0PSIwIiBmaXQtbWFyZ2luLXRvcD0iMCIgZ3JpZHRvbGVyYW5jZT0iMTAiIGd1aWRldG9sZXJhbmNlPSIxMCIgaWQ9Im5hbWVkdmlldzk1Nzk4IiBpbmtzY2FwZTpjdXJyZW50LWxheWVyPSJzdmc5NTc5NiIgaW5rc2NhcGU6Y3g9IjM2LjgzOTc1MiIgaW5rc2NhcGU6Y3k9IjQ1LjQzNTQ0NiIgaW5rc2NhcGU6cGFnZW9wYWNpdHk9IjAiIGlua3NjYXBlOnBhZ2VzaGFkb3c9IjIiIGlua3NjYXBlOndpbmRvdy1oZWlnaHQ9IjEwMTciIGlua3NjYXBlOndpbmRvdy1tYXhpbWl6ZWQ9IjEiIGlua3NjYXBlOndpbmRvdy13aWR0aD0iMTkyMCIgaW5rc2NhcGU6d2luZG93LXg9Ii04IiBpbmtzY2FwZTp3aW5kb3cteT0iLTgiIGlua3NjYXBlOnpvb209IjQuNDgxMzgxNSIgb2JqZWN0dG9sZXJhbmNlPSIxMCIgcGFnZWNvbG9yPSIjZmZmZmZmIiBzaG93Z3JpZD0iZmFsc2UiPiYjeGE7CTwvc29kaXBvZGk6bmFtZWR2aWV3PiYjeGE7JiN4YTs8cmVjdCBpZD0icmVjdDk1NTI3IiB4PSIyMy44MDAwMDMiIHk9IjMwLjEzOTk5OSIgc3R5bGU9ImZpbGw6IzdmYmI0MiIgd2lkdGg9IjkuNDYiIGhlaWdodD0iOS40NiIvPiYjeGE7JiN4YTs8cmVjdCBpZD0icmVjdDk1NTM1IiB4PSIxNi4zMDAwMDMiIHk9IjU1Ljc5MDAwMSIgc3R5bGU9ImZpbGw6IzdmYmI0MiIgd2lkdGg9IjkuNDYiIGhlaWdodD0iOS40NiIvPiYjeGE7JiN4YTs8cmVjdCBpZD0icmVjdDk1NTQzIiB4PSIyOS43NjAwMSIgeT0iNTUuNzkwMDAxIiBzdHlsZT0iZmlsbDojN2ZiYjQyIiB3aWR0aD0iOS40NiIgaGVpZ2h0PSI5LjQ2Ii8+JiN4YTsmI3hhOzxyZWN0IGlkPSJyZWN0OTU1NTEiIHg9IjQzLjA4OTk5NiIgeT0iNTUuNzkwMDAxIiBzdHlsZT0iZmlsbDojN2ZiYjQyIiB3aWR0aD0iOS40NiIgaGVpZ2h0PSI5LjQ2Ii8+JiN4YTsmI3hhOzxyZWN0IGlkPSJyZWN0OTU1NTkiIHg9IjE2LjMwMDAwMyIgeT0iNDIuOTU5OTk5IiBzdHlsZT0iZmlsbDojN2ZiYjQyIiB3aWR0aD0iOS40NiIgaGVpZ2h0PSI5LjQ2Ii8+JiN4YTsmI3hhOzxyZWN0IGlkPSJyZWN0OTU1NjciIHg9IjI5Ljc2MDAxIiB5PSI0Mi45NTk5OTkiIHN0eWxlPSJmaWxsOiM3ZmJiNDIiIHdpZHRoPSI5LjQ2IiBoZWlnaHQ9IjkuNDYiLz4mI3hhOyYjeGE7PHBhdGggaWQ9InBhdGg5NTU3NSIgaW5rc2NhcGU6Y29ubmVjdG9yLWN1cnZhdHVyZT0iMCIgc3R5bGU9ImZpbGw6IzM5OTljNiIgZD0iTSAzNy4yNiwwIDAsMTkuOCB2IDUuNzggaCA3LjYxIHYgMzkuOTkgaCA2LjM2IFYgMjUuNTggaCA0Ni4zMiB2IDM3LjQ1IGggNyBWIDI1LjU4IGggNi45NyBWIDE5LjggWiIvPiYjeGE7JiN4YTs8cGF0aCBpZD0icGF0aDk1NTgzIiBpbmtzY2FwZTpjb25uZWN0b3ItY3VydmF0dXJlPSIwIiBzdHlsZT0iZmlsbDojYjhkNDMzO2ZpbGwtb3BhY2l0eTowLjgiIGQ9Ik0gMzMuMjYsMzkuNiBIIDMyLjE3IFYgMzEuMzYgSCAyMy44IHYgLTEuMjIgaCA5LjQ2IHoiLz4mI3hhOyYjeGE7PHBhdGggaWQ9InBhdGg5NTU5MSIgaW5rc2NhcGU6Y29ubmVjdG9yLWN1cnZhdHVyZT0iMCIgc3R5bGU9ImZpbGw6I2I4ZDQzMztmaWxsLW9wYWNpdHk6MC41IiBkPSJtIDIzLjgsMzAuMTQgaCAxLjA5IHYgOC4yNyBoIDguMzcgViAzOS42IEggMjMuOCBaIi8+JiN4YTsmI3hhOzxwYXRoIGlkPSJwYXRoOTU1OTkiIGlua3NjYXBlOmNvbm5lY3Rvci1jdXJ2YXR1cmU9IjAiIHN0eWxlPSJmaWxsOiNiOGQ0MzM7ZmlsbC1vcGFjaXR5OjAuOCIgZD0iTSAyNS43Niw1Mi40MiBIIDI0LjcgdiAtOC4yNCBoIC04LjQgdiAtMS4yMiBoIDkuNDYgeiIvPiYjeGE7JiN4YTs8cGF0aCBpZD0icGF0aDk1NjA3IiBpbmtzY2FwZTpjb25uZWN0b3ItY3VydmF0dXJlPSIwIiBzdHlsZT0iZmlsbDojYjhkNDMzO2ZpbGwtb3BhY2l0eTowLjUiIGQ9Im0gMTYuMyw0Mi45NiBoIDEuMDkgdiA4LjI0IGggOC4zNyB2IDEuMjIgSCAxNi4zIFoiLz4mI3hhOyYjeGE7PHBhdGggaWQ9InBhdGg5NTYxNSIgaW5rc2NhcGU6Y29ubmVjdG9yLWN1cnZhdHVyZT0iMCIgc3R5bGU9ImZpbGw6I2I4ZDQzMztmaWxsLW9wYWNpdHk6MC44IiBkPSJtIDM5LjI3LDUyLjQyIGggLTEuMTQgdiAtOC4yNCBoIC04LjM3IHYgLTEuMjIgaCA5LjUxIHoiLz4mI3hhOyYjeGE7PHBhdGggaWQ9InBhdGg5NTYyMyIgaW5rc2NhcGU6Y29ubmVjdG9yLWN1cnZhdHVyZT0iMCIgc3R5bGU9ImZpbGw6I2I4ZDQzMztmaWxsLW9wYWNpdHk6MC41IiBkPSJtIDI5Ljc2LDQyLjk2IGggMS4xNCB2IDguMjQgaCA4LjM3IHYgMS4yMiBoIC05LjUxIHoiLz4mI3hhOyYjeGE7PHBhdGggaWQ9InBhdGg5NTYzMSIgaW5rc2NhcGU6Y29ubmVjdG9yLWN1cnZhdHVyZT0iMCIgc3R5bGU9ImZpbGw6I2I4ZDQzMztmaWxsLW9wYWNpdHk6MC44IiBkPSJNIDI1Ljc2LDY1LjI1IEggMjQuNyB2IC04LjI3IGggLTguNCB2IC0xLjE5IGggOS40NiB6Ii8+JiN4YTsmI3hhOzxwYXRoIGlkPSJwYXRoOTU2MzkiIGlua3NjYXBlOmNvbm5lY3Rvci1jdXJ2YXR1cmU9IjAiIHN0eWxlPSJmaWxsOiNiOGQ0MzM7ZmlsbC1vcGFjaXR5OjAuNSIgZD0ibSAxNi4zLDU1Ljc5IGggMS4wOSB2IDguMjQgaCA4LjM3IHYgMS4yMiBIIDE2LjMgWiIvPiYjeGE7JiN4YTs8cGF0aCBpZD0icGF0aDk1NjQ3IiBpbmtzY2FwZTpjb25uZWN0b3ItY3VydmF0dXJlPSIwIiBzdHlsZT0iZmlsbDojYjhkNDMzO2ZpbGwtb3BhY2l0eTowLjgiIGQ9Im0gMzkuMjcsNjUuMjUgaCAtMS4xNCB2IC04LjI3IGggLTguMzcgdiAtMS4xOSBoIDkuNTEgeiIvPiYjeGE7JiN4YTs8cGF0aCBpZD0icGF0aDk1NjU1IiBpbmtzY2FwZTpjb25uZWN0b3ItY3VydmF0dXJlPSIwIiBzdHlsZT0iZmlsbDojYjhkNDMzO2ZpbGwtb3BhY2l0eTowLjUiIGQ9Im0gMjkuNzYsNTUuNzkgaCAxLjE0IHYgOC4yNCBoIDguMzcgdiAxLjIyIGggLTkuNTEgeiIvPiYjeGE7JiN4YTs8cGF0aCBpZD0icGF0aDk1NjYzIiBpbmtzY2FwZTpjb25uZWN0b3ItY3VydmF0dXJlPSIwIiBzdHlsZT0iZmlsbDojYjhkNDMzO2ZpbGwtb3BhY2l0eTowLjgiIGQ9Im0gNTIuNTUsNjUuMjUgaCAtMS4wOSB2IC04LjI3IGggLTguMzcgdiAtMS4xOSBoIDkuNDYgeiIvPiYjeGE7JiN4YTs8cGF0aCBpZD0icGF0aDk1NjcxIiBpbmtzY2FwZTpjb25uZWN0b3ItY3VydmF0dXJlPSIwIiBzdHlsZT0iZmlsbDojYjhkNDMzO2ZpbGwtb3BhY2l0eTowLjUiIGQ9Im0gNDMuMDksNTUuNzkgaCAxLjA5IHYgOC4yNCBoIDguMzcgdiAxLjIyIGggLTkuNDYgeiIvPiYjeGE7JiN4YTs8cGF0aCBpZD0icGF0aDk1Njc5IiBpbmtzY2FwZTpjb25uZWN0b3ItY3VydmF0dXJlPSIwIiBzdHlsZT0iZmlsbDojYjhkNDMzO2ZpbGwtb3BhY2l0eTowLjgiIGQ9Im0gMjUuMiwzOS42IGggLTEuNCB2IC0xLjA4IGwgOC4xOSwtOC4zOCBoIDEuMjcgdiAwLjk1IHoiLz4mI3hhOyYjeGE7PHBhdGggaWQ9InBhdGg5NTY4NyIgaW5rc2NhcGU6Y29ubmVjdG9yLWN1cnZhdHVyZT0iMCIgc3R5bGU9ImZpbGw6I2I4ZDQzMztmaWxsLW9wYWNpdHk6MC44IiBkPSJtIDMxLjE2LDUyLjQyIGggLTEuNCB2IC0xLjA4IGwgOC4yNywtOC4zOCBoIDEuMjQgdiAwLjk1IHoiLz4mI3hhOyYjeGE7PHBhdGggaWQ9InBhdGg5NTY5NSIgaW5rc2NhcGU6Y29ubmVjdG9yLWN1cnZhdHVyZT0iMCIgc3R5bGU9ImZpbGw6I2I4ZDQzMztmaWxsLW9wYWNpdHk6MC44IiBkPSJtIDE3LjcsNTIuNDIgaCAtMS40IHYgLTEuMDggbCA4LjE5LC04LjM4IGggMS4yNyB2IDAuOTUgeiIvPiYjeGE7JiN4YTs8cGF0aCBpZD0icGF0aDk1NzAzIiBpbmtzY2FwZTpjb25uZWN0b3ItY3VydmF0dXJlPSIwIiBzdHlsZT0iZmlsbDojYjhkNDMzO2ZpbGwtb3BhY2l0eTowLjgiIGQ9Im0gMTcuNyw2NS4yNSBoIC0xLjQgdiAtMS4wOCBsIDguMTksLTguMzggaCAxLjI3IHYgMC45NSB6Ii8+JiN4YTsmI3hhOzxwYXRoIGlkPSJwYXRoOTU3MTEiIGlua3NjYXBlOmNvbm5lY3Rvci1jdXJ2YXR1cmU9IjAiIHN0eWxlPSJmaWxsOiNiOGQ0MzM7ZmlsbC1vcGFjaXR5OjAuOCIgZD0ibSAzMS4xNiw2NS4yNSBoIC0xLjQgdiAtMS4wOCBsIDguMjcsLTguMzggaCAxLjI0IHYgMC45NSB6Ii8+JiN4YTsmI3hhOzxwYXRoIGlkPSJwYXRoOTU3MTkiIGlua3NjYXBlOmNvbm5lY3Rvci1jdXJ2YXR1cmU9IjAiIHN0eWxlPSJmaWxsOiNiOGQ0MzM7ZmlsbC1vcGFjaXR5OjAuOCIgZD0ibSA0NC40OSw2NS4yNSBoIC0xLjQgdiAtMS4wOCBsIDguMTksLTguMzggaCAxLjI3IHYgMC45NSB6Ii8+JiN4YTsmI3hhOzxwYXRoIGlkPSJwYXRoOTU3MjkiIGlua3NjYXBlOmNvbm5lY3Rvci1jdXJ2YXR1cmU9IjAiIHN0eWxlPSJmaWxsOiMzOTk5YzYiIGQ9Im0gNTYuMDUsNDcuMTUgdiA0MS4xOCBjIDAsNC4yNCA5LjU5LDcuNzQgMjEuMzksNy43NCBWIDQ3LjE1IFoiLz4mI3hhOyYjeGE7PHBhdGggaWQ9InBhdGg5NTczNyIgaW5rc2NhcGU6Y29ubmVjdG9yLWN1cnZhdHVyZT0iMCIgc3R5bGU9ImZpbGw6IzVhYjRkOSIgZD0ibSA3Ny4xMiw5Ni4xIGggMC4zMiBjIDExLjgyLDAgMjEuMzksLTMuNSAyMS4zOSwtNy43NCBWIDQ3LjE1IEggNzcuMTIgWiIvPiYjeGE7JiN4YTs8cGF0aCBpZD0icGF0aDk1NzQ1IiBpbmtzY2FwZTpjb25uZWN0b3ItY3VydmF0dXJlPSIwIiBzdHlsZT0iZmlsbDojZmZmZmZmIiBkPSJtIDk4LjgzLDQ3LjE1IGMgMCw0LjI0IC05LjYsNy43NCAtMjEuMzksNy43NCAtMTEuOCwwIC0yMS4zOSwtMy40NyAtMjEuMzksLTcuNzQgMCwtNC4yNiA5LjU5LC03Ljc0IDIxLjM5LC03Ljc0IDExLjc5LDAgMjEuMzksMy40MiAyMS4zOSw3Ljc0IHoiLz4mI3hhOyYjeGE7PHBhdGggaWQ9InBhdGg5NTc1MyIgaW5rc2NhcGU6Y29ubmVjdG9yLWN1cnZhdHVyZT0iMCIgc3R5bGU9ImZpbGw6IzdmYmI0MiIgZD0ibSA5NC40Niw0Ni43IGMgMCwyLjc4IC03LjYxLDUuMTQgLTE3LjAyLDUuMTQgLTkuNCwwIC0xNy4wMSwtMi4yOCAtMTcuMDEsLTUuMTQgMCwtMi43OCA3LjYxLC01LjE0IDE3LjAxLC01LjE0IDkuNDEsMCAxNy4wMiwyLjMgMTcuMDIsNS4xNCB6Ii8+JiN4YTsmI3hhOzxwYXRoIGlkPSJwYXRoOTU3NjEiIGlua3NjYXBlOmNvbm5lY3Rvci1jdXJ2YXR1cmU9IjAiIHN0eWxlPSJmaWxsOiNiOGQ0MzMiIGQ9Im0gOTAuOTEsNDkuODMgYyAyLjIyLC0wLjkgMy41NSwtMS45NiAzLjU1LC0zLjEgMCwtMi43OCAtNy42MSwtNS4xNCAtMTcuMDIsLTUuMTQgLTkuNCwwIC0xNy4wMSwyLjI4IC0xNy4wMSw1LjE0IDAsMS4yMiAxLjMzLDIuMjggMy41NSwzLjEgMy4xLC0xLjIyIDguMDEsLTEuOTYgMTMuNDYsLTEuOTYgNS40NiwtMC4wOCAxMC4zNCwwLjc0IDEzLjQ3LDEuOTYgeiIvPiYjeGE7PHBhdGggZD0ibSA2MS4zODEyMyw3Ni42ODA3MiB2IC0yLjkyIGMgMC41LDAuNDUgMS4wOSwwLjc3IDEuNzIsMS4wMSAwLjY0LDAuMTggMS4yNywwLjMyIDEuODMsMC4zMiAwLjM3LDAgMC42OSwtMC4wNiAwLjk1LC0wLjE0IDAuMjcsLTAuMDUgMC41MSwtMC4xMyAwLjY5LC0wLjI2IDAuMTksLTAuMTMgMC4zMiwtMC4yNyAwLjM3LC0wLjQ1IDAuMDYsLTAuMTkgMC4xNCwtMC4zMiAwLjE0LC0wLjUxIDAsLTAuMjYgLTAuMDYsLTAuNSAtMC4xOSwtMC42OSAtMC4xMywtMC4xOCAtMC4zMiwtMC4zNyAtMC41OCwtMC41OCAtMC4yNywtMC4xOCAtMC41OCwtMC4zMiAtMC45LC0wLjUgLTAuMzIsLTAuMTMgLTAuNjksLTAuMzIgLTEuMTQsLTAuNTEgLTEuMDEsLTAuNDUgLTEuNzgsLTAuOTUgLTIuMjgsLTEuNTEgLTAuNSwtMC42MyAtMC43NywtMS4zMiAtMC43NywtMi4yMiAwLC0wLjY5IDAuMTMsLTEuMjcgMC4zNywtMS43MiAwLjI3LC0wLjUxIDAuNjQsLTAuOTEgMS4wOSwtMS4yMiAwLjQ1LC0wLjMyIDEsLTAuNTkgMS42NCwtMC42OSAwLjY0LC0wLjE0IDEuMjcsLTAuMTkgMS45NiwtMC4xOSAwLjY5LDAgMS4yNywwLjA1IDEuNzgsMC4xMyAwLjUsMC4wNiAxLDAuMTkgMS40NiwwLjM3IHYgMi43MyBjIC0wLjE5LC0wLjEzIC0wLjQ2LC0wLjI2IC0wLjY5LC0wLjM3IC0wLjI0LC0wLjEgLTAuNTEsLTAuMTggLTAuNzcsLTAuMjYgLTAuMjcsLTAuMDUgLTAuNTksLTAuMTMgLTAuODIsLTAuMTkgLTAuMjcsLTAuMDUgLTAuNTEsLTAuMDUgLTAuNzcsLTAuMDUgLTAuMzIsMCAtMC42NCwwIC0wLjksMC4wNSAtMC4yNywwLjA2IC0wLjUxLDAuMTQgLTAuNjksMC4yNyAtMC4xOSwwLjEzIC0wLjMyLDAuMjYgLTAuNDUsMC4zNyAtMC4xNCwwLjE4IC0wLjE0LDAuMzIgLTAuMTQsMC41IDAsMC4xOSAwLjA2LDAuMzcgMC4xOSwwLjU5IDAuMTMsMC4xOCAwLjI2LDAuMzEgMC41LDAuNSAwLjE5LDAuMTMgMC40NSwwLjMyIDAuNzcsMC40NSAwLjMyLDAuMTMgMC42NCwwLjMyIDEuMDEsMC40NSAwLjUsMC4xOSAxLjAxLDAuNDUgMS40LDAuNjkgMC40NSwwLjI2IDAuNzcsMC41IDEuMDksMC44MiAwLjMyLDAuMzIgMC41LDAuNjQgMC42OSwxLjA5IDAuMTMsMC4zNyAwLjI2LDAuODIgMC4yNiwxLjQgMCwwLjY5IC0wLjEzLDEuMzMgLTAuMzcsMS44MyAtMC4yNiwwLjUgLTAuNjMsMC45IC0xLjE0LDEuMjIgLTAuNDUsMC4zMiAtMSwwLjUgLTEuNjQsMC42NCAtMC42NCwwLjEzIC0xLjI3LDAuMTggLTEuOTYsMC4xOCAtMC42OSwwIC0xLjQxLC0wLjA1IC0yLjA0LC0wLjE4IC0wLjY2LDAgLTEuMjIsLTAuMjIgLTEuNjcsLTAuNDUgeiIgc3R5bGU9ImZpbGw6I2ZmZmZmZiIgaW5rc2NhcGU6Y29ubmVjdG9yLWN1cnZhdHVyZT0iMCIgaWQ9InBhdGg5NTc3MSIvPiYjeGE7PHBhdGggZD0ibSA3Ny44MDc4Myw3Ny40NDM0IGMgLTEuODIsMCAtMy4zNiwtMC42MyAtNC41NSwtMS44MyAtMS4xNCwtMS4yMiAtMS43OCwtMi43OCAtMS43OCwtNC43NyAwLC0yLjA0IDAuNTgsLTMuNjggMS43OCwtNC45NSAxLjIxLC0xLjI4IDIuNzMsLTEuOTEgNC42OSwtMS45MSAxLjgzLDAgMy4zNiwwLjYzIDQuNSwxLjgzIDEuMTQsMS4xOSAxLjcyLDIuNzggMS43Miw0LjgyIDAsMi4wNCAtMC41OCwzLjY4IC0xLjc3LDQuOTYgLTAuMDUsMC4wNSAtMC4wNSwwLjA1IC0wLjEzLDAuMTMgLTAuMDYsMC4wNSAtMC4wNiwwLjA1IC0wLjE0LDAuMTMgbCAzLjMyLDMuMTggaCAtNC4xNCBsIC0xLjcyLC0xLjc3IGMgLTAuNDIsMC4xIC0xLjA2LDAuMTggLTEuNzgsMC4xOCB6IG0gMC4xNCwtMTAuOTIgYyAtMS4wMSwwIC0xLjgzLDAuMzcgLTIuNDcsMS4xNCAtMC42MywwLjc3IC0wLjksMS43OCAtMC45LDMuMDUgMCwxLjI3IDAuMzIsMi4yOCAwLjksMy4wNSAwLjY0LDAuNzcgMS40MSwxLjE0IDIuMzYsMS4xNCAxLjAxLDAgMS43OCwtMC4zNyAyLjQxLC0xLjA5IDAuNTksLTAuNzcgMC45LC0xLjc4IDAuOSwtMy4wNSAwLC0xLjMyIC0wLjMxLC0yLjQxIC0wLjksLTMuMTggLTAuNTMsLTAuNjkgLTEuMywtMS4wNiAtMi4zLC0xLjA2IHoiIHN0eWxlPSJmaWxsOiNmZmZmZmYiIGlua3NjYXBlOmNvbm5lY3Rvci1jdXJ2YXR1cmU9IjAiIGlkPSJwYXRoOTU3NzkiLz4mI3hhOzxwYXRoIGQ9Im0gOTQuMTM4ODMsNzcuMTc4MjEgaCAtNy43NCB2IC0xMy4wMSBoIDIuOTIgdiAxMC42IGggNC44MiB6IiBzdHlsZT0iZmlsbDojZmZmZmZmIiBpbmtzY2FwZTpjb25uZWN0b3ItY3VydmF0dXJlPSIwIiBpZD0icGF0aDk1Nzg3Ii8+JiN4YTs8L3N2Zz4=;" vertex="1" parent="1">
          <mxGeometry x="340" y="389" width="68.06" height="66" as="geometry" />
        </mxCell>
        <mxCell id="L6lzIBZe05wMHwi8EpyU-34" value="" style="shape=image;verticalLabelPosition=bottom;labelBackgroundColor=none;verticalAlign=top;aspect=fixed;imageAspect=0;image=data:image/svg+xml,PHN2ZyB4bWxuczpkYz0iaHR0cDovL3B1cmwub3JnL2RjL2VsZW1lbnRzLzEuMS8iIHhtbG5zOmNjPSJodHRwOi8vY3JlYXRpdmVjb21tb25zLm9yZy9ucyMiIHhtbG5zOnJkZj0iaHR0cDovL3d3dy53My5vcmcvMTk5OS8wMi8yMi1yZGYtc3ludGF4LW5zIyIgeG1sbnM6c3ZnPSJodHRwOi8vd3d3LnczLm9yZy8yMDAwL3N2ZyIgeG1sbnM9Imh0dHA6Ly93d3cudzMub3JnLzIwMDAvc3ZnIiB4bWxuczpzb2RpcG9kaT0iaHR0cDovL3NvZGlwb2RpLnNvdXJjZWZvcmdlLm5ldC9EVEQvc29kaXBvZGktMC5kdGQiIHhtbG5zOmlua3NjYXBlPSJodHRwOi8vd3d3Lmlua3NjYXBlLm9yZy9uYW1lc3BhY2VzL2lua3NjYXBlIiB2ZXJzaW9uPSIxLjEiIGlkPSJzdmc4MjE0MiIgaW5rc2NhcGU6dmVyc2lvbj0iMC45Mi4zICgyNDA1NTQ2LCAyMDE4LTAzLTExKSIgc29kaXBvZGk6ZG9jbmFtZT0iaW90X3N1aXRlLnN2ZyIgeD0iMHB4IiB5PSIwcHgiIHZpZXdCb3g9IjAgMCA1OS4xMSA2NC4zNCIgeG1sOnNwYWNlPSJwcmVzZXJ2ZSIgd2lkdGg9IjU5LjExMDAwMSIgaGVpZ2h0PSI2NC4zMzk5OTYiPjxtZXRhZGF0YSBpZD0ibWV0YWRhdGEyMzA4Ij48cmRmOlJERj48Y2M6V29yayByZGY6YWJvdXQ9IiI+PGRjOmZvcm1hdD5pbWFnZS9zdmcreG1sPC9kYzpmb3JtYXQ+PGRjOnR5cGUgcmRmOnJlc291cmNlPSJodHRwOi8vcHVybC5vcmcvZGMvZGNtaXR5cGUvU3RpbGxJbWFnZSIvPjxkYzp0aXRsZS8+PC9jYzpXb3JrPjwvcmRmOlJERj48L21ldGFkYXRhPjxkZWZzIGlkPSJkZWZzMjMwNiIvPiYjeGE7PGZpbHRlciBpZD0iZmlsdGVyXzIiPiYjeGE7CTxmZUdhdXNzaWFuQmx1ciBpZD0iZmVHYXVzc2lhbkJsdXI4MjA0NSIgc3RkRGV2aWF0aW9uPSIyIi8+JiN4YTs8L2ZpbHRlcj4mI3hhOzxzb2RpcG9kaTpuYW1lZHZpZXcgYm9yZGVyY29sb3I9IiM2NjY2NjYiIGJvcmRlcm9wYWNpdHk9IjEiIGZpdC1tYXJnaW4tYm90dG9tPSIwIiBmaXQtbWFyZ2luLWxlZnQ9IjAiIGZpdC1tYXJnaW4tcmlnaHQ9IjAiIGZpdC1tYXJnaW4tdG9wPSIwIiBncmlkdG9sZXJhbmNlPSIxMCIgZ3VpZGV0b2xlcmFuY2U9IjEwIiBpZD0ibmFtZWR2aWV3ODIxNDQiIGlua3NjYXBlOmN1cnJlbnQtbGF5ZXI9InN2ZzgyMTQyIiBpbmtzY2FwZTpjeD0iLTE5LjY4ODg1NiIgaW5rc2NhcGU6Y3k9IjMzLjYwNTMyNCIgaW5rc2NhcGU6cGFnZW9wYWNpdHk9IjAiIGlua3NjYXBlOnBhZ2VzaGFkb3c9IjIiIGlua3NjYXBlOndpbmRvdy1oZWlnaHQ9IjEwMTciIGlua3NjYXBlOndpbmRvdy1tYXhpbWl6ZWQ9IjEiIGlua3NjYXBlOndpbmRvdy13aWR0aD0iMTkyMCIgaW5rc2NhcGU6d2luZG93LXg9Ii04IiBpbmtzY2FwZTp3aW5kb3cteT0iLTgiIGlua3NjYXBlOnpvb209IjYuNTM2MzE1MSIgb2JqZWN0dG9sZXJhbmNlPSIxMCIgcGFnZWNvbG9yPSIjZmZmZmZmIiBzaG93Z3JpZD0iZmFsc2UiPiYjeGE7CTwvc29kaXBvZGk6bmFtZWR2aWV3PiYjeGE7JiN4YTsmI3hhOyYjeGE7PHBhdGggaWQ9InBhdGg4MjA2OCIgaW5rc2NhcGU6Y29ubmVjdG9yLWN1cnZhdHVyZT0iMCIgc3R5bGU9ImZpbGw6IzAwNzJjNiIgZD0ibSA5LjQ2LDQ1Ljk0IGMgMCwtMC4zNCAwLC0wLjY4IC0wLjE3LC0xLjAyIEwgMjguMDMsMzQuNDUgdiAyMC43OCBjIC0wLjY3LDAuMTYgLTEuMzUsMC41IC0xLjg1LDEuMDEgTCA5LjI5LDQ2Ljk1IEMgOS40Niw0Ni40NCA5LjQ2LDQ2LjI3IDkuNDYsNDUuOTQgWiBNIDcuOTQsMjEuNjIgMjYuNjgsMzIuMDkgNy45NCw0Mi41NiBDIDcuNDMsNDIuMDUgNi43Niw0MS43MSA2LjA4LDQxLjU1IFYgMjIuNjMgQyA2Ljc2LDIyLjQ2IDcuNDMsMjIuMTIgNy45NCwyMS42MiBaIE0gMjguMDMsOC43OCBWIDI5LjcyIEwgOS4yOSwxOS4yNSBjIDAsLTAuMzMgMC4xNywtMC42NyAwLjE3LC0xLjAxIDAsLTAuMzQgMCwtMC42OCAtMC4xNywtMS4wMSBMIDI2LjM1LDcuNzcgYyAwLjUsMC41MSAxLjE4LDAuODQgMS42OCwxLjAxIHogbSAyMS42Miw5LjYzIGMgMCwwLjM0IDAsMC42NyAwLjE3LDEuMDEgTCAzMS4wNywyOS44OSBWIDkuMTIgYyAwLjY4LC0wLjE3IDEuMTksLTAuNTEgMS42OSwtMS4wMSBsIDE3LjA2LDkuMjkgYyAtMC4xNywwLjMzIC0wLjE3LDAuNSAtMC4xNywxLjAxIHogTSA1MS4xNyw0Mi41NiAzMi40MywzMi4wOSA1MS4xNywyMS42MiBjIDAuNTEsMC41IDEuMDIsMC44NCAxLjY5LDEuMDEgdiAxOC45MiBjIC0wLjUxLDAuMTYgLTEuMTgsMC41IC0xLjY5LDEuMDEgeiBNIDMxLjA3LDU1LjM5IFYgMzQuNjIgbCAxOC43NSwxMC4zIGMgMCwwLjM0IC0wLjE3LDAuNjggLTAuMTcsMS4wMiAwLDAuMzMgMCwwLjY3IDAuMTcsMS4wMSBsIC0xNy4wNiw5LjQ2IGMgLTAuNSwtMC41MSAtMS4xOCwtMC44NSAtMS42OSwtMS4wMiB6IG0gMy4yMSw0LjIzIGMgMCwtMC4zNCAwLC0wLjY4IC0wLjE3LC0xLjAyIGwgMTcuMDYsLTkuNDUgYyAwLjg1LDAuNjcgMi4wMywxLjE4IDMuMjEsMS4xOCAyLjUzLDAgNC43MywtMi4wMyA0LjczLC00LjU2IDAsLTIuMDMgLTEuMzUsLTMuNzIgLTMuMzgsLTQuMzkgViAyMi42MyBjIDEuODYsLTAuNjggMy4zOCwtMi4zNiAzLjM4LC00LjIyIDAsLTIuNTMgLTIuMiwtNC41NiAtNC43MywtNC41NiAtMS4xOCwwIC0yLjM2LDAuNTEgLTMuMjEsMS4xOCBMIDM0LjExLDUuNTcgQyAzNC4xMSw1LjI0IDM0LjI4LDQuOSAzNC4yOCw0LjU2IDM0LjI4LDIuMDMgMzIuMjYsMCAyOS41NSwwIGMgLTIuNywwIC00LjcyLDIuMDMgLTQuNzIsNC41NiAwLDAuMzQgMCwwLjY4IDAuMTYsMS4wMSBMIDcuOTQsMTUuMDMgQyA3LjA5LDE0LjM2IDYuMDgsMTMuODUgNC43MywxMy44NSAyLjIsMTMuODUgMCwxNS44OCAwLDE4LjQxIGMgMCwyLjAyIDEuMzUsMy43MSAzLjIxLDQuMjIgViA0MS41NSBDIDEuMzUsNDIuMjIgMCw0My45MSAwLDQ1Ljk0IGMgMCwyLjUzIDIuMiw0LjU2IDQuNzMsNC41NiAxLjE4LDAgMi4zNiwtMC41MSAzLjIxLC0xLjE5IGwgMTcuMDUsOS40NiBjIDAsMC4zNCAtMC4xNiwwLjY4IC0wLjE2LDEuMDEgMCwyLjU0IDIuMTksNC41NiA0LjcyLDQuNTYgMi43MSwtMC4xNiA0LjczLC0yLjE5IDQuNzMsLTQuNzIgeiIvPiYjeGE7JiN4YTs8cGF0aCBpZD0icGF0aDgyMDc3IiBpbmtzY2FwZTpjb25uZWN0b3ItY3VydmF0dXJlPSIwIiBzdHlsZT0iZmlsbDojMDA3MmM2IiBkPSJtIDI5LjU2LDE4Ljc1IGMgNy4yNiwwIDEzLjM0LDUuOTEgMTMuMzQsMTMuMzQgMCw3LjQzIC01LjkxLDEzLjM0IC0xMy4zNCwxMy4zNCAtNy40NCwwIC0xMy4zNSwtNS45MSAtMTMuMzUsLTEzLjM0IDAsLTcuNDMgNi4wOCwtMTMuMzQgMTMuMzUsLTEzLjM0IHogbSAwLC0yLjU0IGMgLTguNzksMCAtMTUuODgsNy4xIC0xNS44OCwxNS44OCAwLDguNzggNy4wOSwxNS44NyAxNS44OCwxNS44NyA4Ljc4LDAgMTUuODcsLTcuMDkgMTUuODcsLTE1Ljg3IDAsLTguNzggLTcuMDksLTE1Ljg4IC0xNS44NywtMTUuODggeiIvPiYjeGE7JiN4YTs8cGF0aCBpZD0icGF0aDgyMDg1IiBpbmtzY2FwZTpjb25uZWN0b3ItY3VydmF0dXJlPSIwIiBzdHlsZT0iZmlsbDojZmZmZmZmIiBkPSJtIDI5LjU1LDE4Ljc1IGMgLTcuMjYsMCAtMTMuMzQsNS45MSAtMTMuMzQsMTMuMzQgMCw3LjQzIDUuOTEsMTMuMzQgMTMuMzQsMTMuMzQgNy40MywwIDEzLjM0LC01LjkxIDEzLjM0LC0xMy4zNCAwLC03LjQzIC02LjA4LC0xMy4zNCAtMTMuMzQsLTEzLjM0IHoiLz4mI3hhOyYjeGE7PHBhdGggaWQ9InBhdGg4MjA5NSIgaW5rc2NhcGU6Y29ubmVjdG9yLWN1cnZhdHVyZT0iMCIgc3R5bGU9ImZpbGw6IzAwNzJjNjtmaWxsLW9wYWNpdHk6MC40IiBkPSJtIDI0LjY2LDI5LjA1IC0zLjA0LC0yLjUzIGMgLTEuMzUsMS44NSAtMS44Niw0LjA1IC0xLjg2LDYuMDcgbCAzLjg4LC0wLjMzIGMgMCwtMS4wMiAwLjM0LC0yLjIgMS4wMiwtMy4yMSB6Ii8+JiN4YTsmI3hhOzxwYXRoIGlkPSJwYXRoODIxMDMiIGlua3NjYXBlOmNvbm5lY3Rvci1jdXJ2YXR1cmU9IjAiIHN0eWxlPSJmaWxsOiMwMDcyYzY7ZmlsbC1vcGFjaXR5OjAuOCIgZD0ibSAzMy4xLDI3LjE5IDIuNTMsLTMuMDQgQyAzMy43NywyMi44IDMxLjU4LDIyLjMgMjkuNTUsMjIuMyBsIDAuMzQsMy44OCBjIDEuMDEsMCAyLjE5LDAuMzQgMy4yMSwxLjAxIHoiLz4mI3hhOyYjeGE7PHBhdGggaWQ9InBhdGg4MjExMSIgaW5rc2NhcGU6Y29ubmVjdG9yLWN1cnZhdHVyZT0iMCIgc3R5bGU9ImZpbGw6IzAwNzJjNjtmaWxsLW9wYWNpdHk6MC42IiBkPSJtIDI4LjM3LDI2LjM1IC0wLjM0LC0zLjg5IGMgLTIuMDIsMC4zNCAtNC4wNSwxLjM1IC01LjU3LDMuMDQgbCAzLjA0LDIuNTMgYyAwLjg0LC0wLjg0IDEuODYsLTEuMzUgMi44NywtMS42OCB6Ii8+JiN4YTsmI3hhOzxwYXRoIGlkPSJwYXRoODIxMTkiIGlua3NjYXBlOmNvbm5lY3Rvci1jdXJ2YXR1cmU9IjAiIHN0eWxlPSJmaWxsOiMwMDcyYzY7ZmlsbC1vcGFjaXR5OjAuMjUiIGQ9Im0gMjMuODEsMzMuNzcgLTMuODgsMC4zNCBjIDAuMzQsMi4wMyAxLjM1LDQuMDUgMy4wNCw1LjU3IEwgMjUuNSwzNi42NCBDIDI0LjY2LDM1LjggMjMuOTgsMzQuNzkgMjMuODEsMzMuNzcgWiIvPiYjeGE7JiN4YTs8cGF0aCBpZD0icGF0aDgyMTI3IiBpbmtzY2FwZTpjb25uZWN0b3ItY3VydmF0dXJlPSIwIiBzdHlsZT0iZmlsbDojMDA3MmM2IiBkPSJtIDM2LjY0LDI1IC0yLjUzLDMuMDQgYyAwLjY4LDAuNjcgMS4wMSwxLjM1IDEuMzUsMi4wMiBoIDQuMDUgQyAzOS4xOCwyOC4yMSAzOC4xNiwyNi4zNSAzNi42NCwyNSBaIi8+JiN4YTsmI3hhOzxwYXRoIGlkPSJwYXRoODIxMzUiIGlua3NjYXBlOmNvbm5lY3Rvci1jdXJ2YXR1cmU9IjAiIHN0eWxlPSJmaWxsOiMwMDcyYzYiIGQ9Im0gNDEuMjEsMzIuNDMgdiAwIGMgMCwtMC42OCAtMC41LC0xLjM2IC0xLjM1LC0xLjM2IGggLTAuMzQgLTQuMDUgLTQuNTYgdiAwIGMgLTAuMzQsLTAuMzMgLTAuODQsLTAuNSAtMS4xOCwtMC41IC0wLjUxLDAgLTAuODUsMC4xNyAtMS4xOCwwLjUgLTAuNjgsMC42OCAtMC42OCwxLjg2IDAsMi41NCAwLjMzLDAuMzQgMC44NCwwLjUgMS4xOCwwLjUgMC4zNCwwIDAuODQsLTAuMTYgMS4xOCwtMC41IGggOS4xMiBjIDAuNjgsMCAxLjE4LC0wLjUxIDEuMTgsLTEuMTggMCwwIDAsMCAwLDAgeiIvPiYjeGE7PC9zdmc+;" vertex="1" parent="1">
          <mxGeometry x="100" y="480" width="46.09" height="50" as="geometry" />
        </mxCell>
        <mxCell id="L6lzIBZe05wMHwi8EpyU-35" value="IoT&amp;nbsp;&lt;br&gt;Devices" style="edgeStyle=segmentEdgeStyle;endArrow=classic;html=1;curved=0;rounded=0;sourcePerimeterSpacing=0;targetPerimeterSpacing=0;align=center;labelBackgroundColor=none;fontColor=default;" edge="1" parent="1">
          <mxGeometry x="-0.0952" y="-30" width="100" relative="1" as="geometry">
            <mxPoint x="120" y="550" as="sourcePoint" />
            <mxPoint x="130" y="280" as="targetPoint" />
            <Array as="points">
              <mxPoint x="160" y="560" />
              <mxPoint x="160" y="250" />
              <mxPoint x="130" y="270" />
            </Array>
            <mxPoint as="offset" />
          </mxGeometry>
        </mxCell>
        <mxCell id="L6lzIBZe05wMHwi8EpyU-93" value="" style="edgeStyle=orthogonalEdgeStyle;rounded=0;orthogonalLoop=1;jettySize=auto;html=1;" edge="1" parent="1">
          <mxGeometry relative="1" as="geometry">
            <mxPoint x="520" y="460" as="sourcePoint" />
            <mxPoint x="520" y="400" as="targetPoint" />
            <Array as="points">
              <mxPoint x="520" y="430" />
              <mxPoint x="520" y="430" />
            </Array>
          </mxGeometry>
        </mxCell>
        <mxCell id="L6lzIBZe05wMHwi8EpyU-13" value="Azure Databricks" style="shape=image;verticalLabelPosition=bottom;labelBackgroundColor=none;verticalAlign=top;aspect=fixed;imageAspect=0;image=data:image/svg+xml,PHN2ZyB4bWxuczpkYz0iaHR0cDovL3B1cmwub3JnL2RjL2VsZW1lbnRzLzEuMS8iIHhtbG5zOmNjPSJodHRwOi8vY3JlYXRpdmVjb21tb25zLm9yZy9ucyMiIHhtbG5zOnJkZj0iaHR0cDovL3d3dy53My5vcmcvMTk5OS8wMi8yMi1yZGYtc3ludGF4LW5zIyIgeG1sbnM6c3ZnPSJodHRwOi8vd3d3LnczLm9yZy8yMDAwL3N2ZyIgeG1sbnM9Imh0dHA6Ly93d3cudzMub3JnLzIwMDAvc3ZnIiB4bWxuczp4bGluaz0iaHR0cDovL3d3dy53My5vcmcvMTk5OS94bGluayIgeG1sbnM6c29kaXBvZGk9Imh0dHA6Ly9zb2RpcG9kaS5zb3VyY2Vmb3JnZS5uZXQvRFREL3NvZGlwb2RpLTAuZHRkIiB4bWxuczppbmtzY2FwZT0iaHR0cDovL3d3dy5pbmtzY2FwZS5vcmcvbmFtZXNwYWNlcy9pbmtzY2FwZSIgdmVyc2lvbj0iMS4xIiBpZD0iTGF5ZXJfMSIgeD0iMHB4IiB5PSIwcHgiIHZpZXdCb3g9IjAgMCA0NC4yMTk5OTcgNDUuNzc5OTk5IiB4bWw6c3BhY2U9InByZXNlcnZlIiBzb2RpcG9kaTpkb2NuYW1lPSJhenVyZV9kYXRhYnJpY2tzLnN2ZyIgd2lkdGg9IjQ0LjIxOTk5NyIgaGVpZ2h0PSI0NS43Nzk5OTkiIGlua3NjYXBlOnZlcnNpb249IjAuOTIuMyAoMjQwNTU0NiwgMjAxOC0wMy0xMSkiPjxtZXRhZGF0YSBpZD0ibWV0YWRhdGEzMDcwMyI+PHJkZjpSREY+PGNjOldvcmsgcmRmOmFib3V0PSIiPjxkYzpmb3JtYXQ+aW1hZ2Uvc3ZnK3htbDwvZGM6Zm9ybWF0PjxkYzp0eXBlIHJkZjpyZXNvdXJjZT0iaHR0cDovL3B1cmwub3JnL2RjL2RjbWl0eXBlL1N0aWxsSW1hZ2UiLz48ZGM6dGl0bGUvPjwvY2M6V29yaz48L3JkZjpSREY+PC9tZXRhZGF0YT48ZGVmcyBpZD0iZGVmczMwNzAxIi8+PHNvZGlwb2RpOm5hbWVkdmlldyBwYWdlY29sb3I9IiNmZmZmZmYiIGJvcmRlcmNvbG9yPSIjNjY2NjY2IiBib3JkZXJvcGFjaXR5PSIxIiBvYmplY3R0b2xlcmFuY2U9IjEwIiBncmlkdG9sZXJhbmNlPSIxMCIgZ3VpZGV0b2xlcmFuY2U9IjEwIiBpbmtzY2FwZTpwYWdlb3BhY2l0eT0iMCIgaW5rc2NhcGU6cGFnZXNoYWRvdz0iMiIgaW5rc2NhcGU6d2luZG93LXdpZHRoPSIxOTIwIiBpbmtzY2FwZTp3aW5kb3ctaGVpZ2h0PSIxMDE3IiBpZD0ibmFtZWR2aWV3MzA2OTkiIHNob3dncmlkPSJmYWxzZSIgZml0LW1hcmdpbi10b3A9IjAiIGZpdC1tYXJnaW4tbGVmdD0iMCIgZml0LW1hcmdpbi1yaWdodD0iMCIgZml0LW1hcmdpbi1ib3R0b209IjAiIGlua3NjYXBlOnpvb209IjEuMDMwMzAzIiBpbmtzY2FwZTpjeD0iMjQwLjA4NSIgaW5rc2NhcGU6Y3k9Ii0xNzcuMzkiIGlua3NjYXBlOndpbmRvdy14PSItOCIgaW5rc2NhcGU6d2luZG93LXk9Ii04IiBpbmtzY2FwZTp3aW5kb3ctbWF4aW1pemVkPSIxIiBpbmtzY2FwZTpjdXJyZW50LWxheWVyPSJMYXllcl8xIi8+JiN4YTsmI3hhOzxnIGlkPSJnMzA2OTYiIHRyYW5zZm9ybT0idHJhbnNsYXRlKC01Ny4yOTAwMDEsLTE5Ny41OCkiPiYjeGE7CTxkZWZzIGlkPSJkZWZzMzA2NzUiPiYjeGE7CQk8cmVjdCBpZD0iU1ZHSURfM18iIHg9IjU3LjI5MDAwMSIgeT0iMTk3LjU4IiB3aWR0aD0iNDUuMzMwMDAyIiBoZWlnaHQ9IjQ4LjE2Ii8+JiN4YTsJPC9kZWZzPiYjeGE7CTxjbGlwUGF0aCBpZD0iU1ZHSURfNF8iPiYjeGE7CQk8dXNlIHhsaW5rOmhyZWY9IiNTVkdJRF8zXyIgc3R5bGU9Im92ZXJmbG93OnZpc2libGUiIGlkPSJ1c2UzMDY3NyIgeD0iMCIgeT0iMCIgd2lkdGg9IjEwMCUiIGhlaWdodD0iMTAwJSIvPiYjeGE7CTwvY2xpcFBhdGg+JiN4YTsJPGcgY2xpcC1wYXRoPSJ1cmwoI1NWR0lEXzRfKSIgaWQ9ImczMDY5NCI+JiN4YTsJCTxkZWZzIGlkPSJkZWZzMzA2ODEiPiYjeGE7CQkJPHJlY3QgaWQ9IlNWR0lEXzVfIiB4PSI1Ny4yOTAwMDEiIHk9IjE5Ny41OCIgd2lkdGg9IjQ1LjMzMDAwMiIgaGVpZ2h0PSI0OC4xNiIvPiYjeGE7CQk8L2RlZnM+JiN4YTsJCTxjbGlwUGF0aCBpZD0iU1ZHSURfNl8iPiYjeGE7CQkJPHVzZSB4bGluazpocmVmPSIjU1ZHSURfNV8iIHN0eWxlPSJvdmVyZmxvdzp2aXNpYmxlIiBpZD0idXNlMzA2ODMiIHg9IjAiIHk9IjAiIHdpZHRoPSIxMDAlIiBoZWlnaHQ9IjEwMCUiLz4mI3hhOwkJPC9jbGlwUGF0aD4mI3hhOwkJPHBvbHlnb24gc3R5bGU9ImZpbGw6I2RjMjEyNiIgcG9pbnRzPSI3OS40NiwyNDMuMzYgNTcuMjksMjMxLjMyIDU3LjI5LDIyNC4wMSA3OS40LDIxMi42MiAxMDEuNDUsMjI0LjAxIDEwMS40NSwyMzEuMzIgIiBjbGlwLXBhdGg9InVybCgjU1ZHSURfNl8pIiBpZD0icG9seWdvbjMwNjg2Ii8+JiN4YTsJCTxwb2x5Z29uIHN0eWxlPSJmaWxsOiNmMDU0MmQiIHBvaW50cz0iNzkuNCwyMzUuNTcgNTcuMjksMjI0LjAxIDc5LjQsMjEyLjYyIDEwMS41MSwyMjQuMDEgIiBjbGlwLXBhdGg9InVybCgjU1ZHSURfNl8pIiBpZD0icG9seWdvbjMwNjg4Ii8+JiN4YTsJCTxwb2x5Z29uIHN0eWxlPSJmaWxsOiNkYzIxMjYiIHBvaW50cz0iNzkuNDYsMjI4LjMyIDU3LjI5LDIxNi4yOCA1Ny4yOSwyMDguOTYgNzkuNCwxOTcuNTggMTAxLjQ1LDIwOC45NiAxMDEuNDUsMjE2LjI4ICIgY2xpcC1wYXRoPSJ1cmwoI1NWR0lEXzZfKSIgaWQ9InBvbHlnb24zMDY5MCIvPiYjeGE7CQk8cG9seWdvbiBzdHlsZT0iZmlsbDojZjA1NDJkIiBwb2ludHM9Ijc5LjQsMjIwLjUzIDU3LjI5LDIwOC45NiA3OS40LDE5Ny41OCAxMDEuNTEsMjA4Ljk2ICIgY2xpcC1wYXRoPSJ1cmwoI1NWR0lEXzZfKSIgaWQ9InBvbHlnb24zMDY5MiIvPiYjeGE7CTwvZz4mI3hhOzwvZz4mI3hhOzwvc3ZnPg==;" vertex="1" parent="1">
          <mxGeometry x="510.78000000000003" y="340" width="28.7" height="30" as="geometry" />
        </mxCell>
        <mxCell id="RLjyjs_sm2IHfBNOWAbh-17" value="Machine Learning" style="aspect=fixed;html=1;perimeter=none;align=right;shadow=0;dashed=0;image;fontSize=12;image=img/lib/mscae/Machine_Learning.svg;labelBackgroundColor=none;labelPosition=right;verticalLabelPosition=bottom;verticalAlign=top;" parent="1" vertex="1">
          <mxGeometry x="510.78000000000003" y="280" width="29.71" height="30.74" as="geometry" />
        </mxCell>
        <mxCell id="L6lzIBZe05wMHwi8EpyU-64" style="edgeStyle=elbowEdgeStyle;rounded=0;orthogonalLoop=1;jettySize=auto;html=1;exitX=0;exitY=0;exitDx=0;exitDy=0;labelBackgroundColor=none;fontColor=default;" edge="1" parent="1" source="RLjyjs_sm2IHfBNOWAbh-16" target="RLjyjs_sm2IHfBNOWAbh-16">
          <mxGeometry relative="1" as="geometry" />
        </mxCell>
        <mxCell id="L6lzIBZe05wMHwi8EpyU-69" value="" style="edgeStyle=none;orthogonalLoop=1;jettySize=auto;html=1;rounded=0;labelBackgroundColor=none;fontColor=default;" edge="1" parent="1">
          <mxGeometry width="100" relative="1" as="geometry">
            <mxPoint x="400" y="480" as="sourcePoint" />
            <mxPoint x="490" y="490" as="targetPoint" />
            <Array as="points">
              <mxPoint x="400" y="490" />
              <mxPoint x="440" y="490" />
            </Array>
          </mxGeometry>
        </mxCell>
        <mxCell id="L6lzIBZe05wMHwi8EpyU-91" value="Tableau / Power BI" style="shape=image;verticalLabelPosition=bottom;labelBackgroundColor=#ffffff;verticalAlign=top;aspect=fixed;imageAspect=0;image=data:image/svg+xml,PHN2ZyB4bWxuczpkYz0iaHR0cDovL3B1cmwub3JnL2RjL2VsZW1lbnRzLzEuMS8iIHhtbG5zOmNjPSJodHRwOi8vY3JlYXRpdmVjb21tb25zLm9yZy9ucyMiIHhtbG5zOnJkZj0iaHR0cDovL3d3dy53My5vcmcvMTk5OS8wMi8yMi1yZGYtc3ludGF4LW5zIyIgeG1sbnM6c3ZnPSJodHRwOi8vd3d3LnczLm9yZy8yMDAwL3N2ZyIgeG1sbnM9Imh0dHA6Ly93d3cudzMub3JnLzIwMDAvc3ZnIiB4bWxuczpzb2RpcG9kaT0iaHR0cDovL3NvZGlwb2RpLnNvdXJjZWZvcmdlLm5ldC9EVEQvc29kaXBvZGktMC5kdGQiIHhtbG5zOmlua3NjYXBlPSJodHRwOi8vd3d3Lmlua3NjYXBlLm9yZy9uYW1lc3BhY2VzL2lua3NjYXBlIiB2ZXJzaW9uPSIxLjEiIGlkPSJzdmc5MTExMCIgaW5rc2NhcGU6dmVyc2lvbj0iMC45Mi4zICgyNDA1NTQ2LCAyMDE4LTAzLTExKSIgc29kaXBvZGk6ZG9jbmFtZT0icG93ZXJfYmkuc3ZnIiB4PSIwcHgiIHk9IjBweCIgdmlld0JveD0iMCAwIDUwLjg1IDM4LjA3IiB4bWw6c3BhY2U9InByZXNlcnZlIiB3aWR0aD0iNTAuODQ5OTk4IiBoZWlnaHQ9IjM4LjA3Ij48bWV0YWRhdGEgaWQ9Im1ldGFkYXRhMTgwNjYiPjxyZGY6UkRGPjxjYzpXb3JrIHJkZjphYm91dD0iIj48ZGM6Zm9ybWF0PmltYWdlL3N2Zyt4bWw8L2RjOmZvcm1hdD48ZGM6dHlwZSByZGY6cmVzb3VyY2U9Imh0dHA6Ly9wdXJsLm9yZy9kYy9kY21pdHlwZS9TdGlsbEltYWdlIi8+PGRjOnRpdGxlLz48L2NjOldvcms+PC9yZGY6UkRGPjwvbWV0YWRhdGE+PGRlZnMgaWQ9ImRlZnMxODA2NCIvPiYjeGE7PGZpbHRlciBpZD0iZmlsdGVyXzIiPiYjeGE7CTxmZUdhdXNzaWFuQmx1ciBpZD0iZmVHYXVzc2lhbkJsdXI5MTA0MyIgc3RkRGV2aWF0aW9uPSIyIi8+JiN4YTs8L2ZpbHRlcj4mI3hhOzxzb2RpcG9kaTpuYW1lZHZpZXcgYm9yZGVyY29sb3I9IiM2NjY2NjYiIGJvcmRlcm9wYWNpdHk9IjEiIGZpdC1tYXJnaW4tYm90dG9tPSIwIiBmaXQtbWFyZ2luLWxlZnQ9IjAiIGZpdC1tYXJnaW4tcmlnaHQ9IjAiIGZpdC1tYXJnaW4tdG9wPSIwIiBncmlkdG9sZXJhbmNlPSIxMCIgZ3VpZGV0b2xlcmFuY2U9IjEwIiBpZD0ibmFtZWR2aWV3OTExMTIiIGlua3NjYXBlOmN1cnJlbnQtbGF5ZXI9InN2ZzkxMTEwIiBpbmtzY2FwZTpjeD0iLTMxLjA3MjI0OCIgaW5rc2NhcGU6Y3k9IjE4LjI0MDY4NiIgaW5rc2NhcGU6cGFnZW9wYWNpdHk9IjAiIGlua3NjYXBlOnBhZ2VzaGFkb3c9IjIiIGlua3NjYXBlOndpbmRvdy1oZWlnaHQ9IjEwMTciIGlua3NjYXBlOndpbmRvdy1tYXhpbWl6ZWQ9IjEiIGlua3NjYXBlOndpbmRvdy13aWR0aD0iMTkyMCIgaW5rc2NhcGU6d2luZG93LXg9Ii04IiBpbmtzY2FwZTp3aW5kb3cteT0iLTgiIGlua3NjYXBlOnpvb209IjEwLjA5NTE0NiIgb2JqZWN0dG9sZXJhbmNlPSIxMCIgcGFnZWNvbG9yPSIjZmZmZmZmIiBzaG93Z3JpZD0iZmFsc2UiPiYjeGE7CTwvc29kaXBvZGk6bmFtZWR2aWV3PiYjeGE7JiN4YTsmI3hhOzxwYXRoIGlkPSJwYXRoOTEwNTgiIGlua3NjYXBlOmNvbm5lY3Rvci1jdXJ2YXR1cmU9IjAiIHN0eWxlPSJmaWxsOiNlZGJkMTEiIGQ9Ik0gNDQuODUsMzIuOTUgSCA0My44MyBWIDMwLjkgaCAxLjAyIGMgMi4xOCwwIDMuOTUsLTEuNzcgMy45NSwtMy45NSBWIDYgQyA0OC44LDMuODIgNDcuMDMsMi4wNSA0NC44NSwyLjA1IEggNiBDIDMuODIsMi4wNSAyLjA1LDMuODIgMi4wNSw2IHYgMjAuOTUgYyAwLjAxLDIuMTggMS43NywzLjk0IDMuOTUsMy45NCBoIDEuMDIgdiAyLjA1IEggNiBjIC0zLjMxLDAgLTUuOTksLTIuNjggLTYsLTUuOTkgViA2IEMgMCwyLjY5IDIuNjksMCA2LDAgaCAzOC44NSBjIDMuMzEsMCA2LDIuNjkgNiw2IHYgMjAuOTUgYyAtMC4wMSwzLjMxIC0yLjY5LDUuOTkgLTYsNS45OSB6Ii8+JiN4YTsmI3hhOyYjeGE7PHBhdGggaWQ9InBhdGg5MTA2OCIgaW5rc2NhcGU6Y29ubmVjdG9yLWN1cnZhdHVyZT0iMCIgc3R5bGU9ImZpbGw6I2VkYmQxMSIgZD0ibSAxMi4yOSwyNi4wOCBjIDEuNTQsMCAyLjc5LDEuMjQgMi43OSwyLjc4IDAsMCAwLDAuMDEgMCwwLjAxIHYgNi40MSBjIDAsMS41NCAtMS4yNCwyLjc5IC0yLjc4LDIuNzkgMCwwIC0wLjAxLDAgLTAuMDEsMCAtMS41NCwwIC0yLjc4LC0xLjI1IC0yLjc4LC0yLjc5IDAsMCAwLDAgMCwwIHYgLTYuNDEgYyAwLC0xLjU0IDEuMjQsLTIuNzkgMi43OCwtMi43OSAwLDAgMCwwIDAsMCB6Ii8+JiN4YTsmI3hhOyYjeGE7PHBhdGggaWQ9InBhdGg5MTA3OCIgaW5rc2NhcGU6Y29ubmVjdG9yLWN1cnZhdHVyZT0iMCIgc3R5bGU9ImZpbGw6I2VkYmQxMSIgZD0ibSAyMS4wNSwzOC4wNiBjIC0xLjUzLDAgLTIuNzgsLTEuMjUgLTIuNzgsLTIuNzggViAxOC44MSBjIDAsLTEuNTQgMS4yNSwtMi43OCAyLjc5LC0yLjc4IDEuNTQsMCAyLjc4LDEuMjUgMi43OCwyLjc4IHYgMTYuNDcgYyAwLDEuNTQgLTEuMjQsMi43OSAtMi43OCwyLjc5IDAsMCAtMC4wMSwwIC0wLjAxLDAgeiIvPiYjeGE7JiN4YTsmI3hhOyYjeGE7PHBhdGggaWQ9InBhdGg5MTA5MCIgaW5rc2NhcGU6Y29ubmVjdG9yLWN1cnZhdHVyZT0iMCIgc3R5bGU9ImZpbGw6I2VkYmQxMSIgZD0ibSAzOC41NSwzNy45OSBjIC0xLjU0LDAgLTIuNzgsLTEuMjUgLTIuNzgsLTIuNzkgMCwwIDAsMCAwLDAgViAxMS44NyBjIDAsLTEuNTQgMS4yNSwtMi43OCAyLjc5LC0yLjc4IDEuNTQsMCAyLjc4LDEuMjUgMi43OCwyLjc4IFYgMzUuMiBjIDAsMS41NCAtMS4yNCwyLjc5IC0yLjc4LDIuNzkgMCwwIC0wLjAxLDAgLTAuMDEsMCB6Ii8+JiN4YTsmI3hhOyYjeGE7JiN4YTs8cGF0aCBpZD0icGF0aDkxMTAyIiBpbmtzY2FwZTpjb25uZWN0b3ItY3VydmF0dXJlPSIwIiBzdHlsZT0iZmlsbDojZWRiZDExIiBkPSJtIDI5LjgsMzguMDcgYyAtMS41NCwwIC0yLjc4LC0xLjI1IC0yLjc4LC0yLjc5IDAsMCAwLDAgMCwwIFYgMjMuMDQgYyAwLC0xLjU0IDEuMjUsLTIuNzkgMi43OCwtMi43OSAxLjU0LDAgMi43OSwxLjI1IDIuNzksMi43OSB2IDAgMTIuMjQgYyAwLDEuNTQgLTEuMjQsMi43OSAtMi43OCwyLjc5IDAsMCAtMC4wMSwwIC0wLjAxLDAgeiIvPiYjeGE7JiN4YTs8L3N2Zz4=;" vertex="1" parent="1">
          <mxGeometry x="610" y="390" width="51" height="38" as="geometry" />
        </mxCell>
      </root>
    </mxGraphModel>
  </diagram>
</mxfile>
